<svg width="100%" height="auto" viewBox="0 0 40 40" fill="none" xmlns="http://www.w3.org/2000/svg">
    <path
        d="M34.7951 0C37.3463 0 39.4008 1.895 39.5219 4.1275V40L34.6672 36.2113L32.0031 33.985L29.09 31.6537L30.3023 35.3262H4.8396C2.29523 35.3262 0.233887 33.555 0.233887 31.1987V4.135C0.233887 1.9025 2.29659 0.0075 4.84776 0.0075H34.7815L34.7951 0ZM23.6965 9.4725H23.6393L23.2706 9.805C27.0341 10.8075 28.8546 12.37 28.8546 12.37C26.4313 11.2563 24.2407 10.6962 22.0583 10.4688C20.4854 10.2475 18.9044 10.365 17.5723 10.4688H17.2036C16.3532 10.4688 14.5395 10.8075 12.108 11.6988C11.2645 12.0375 10.776 12.2587 10.776 12.2587C10.776 12.2587 12.5897 10.585 16.6008 9.69375L16.3532 9.4725C16.3532 9.4725 13.3204 9.36125 10.0467 11.5887C10.0467 11.5887 6.77304 16.83 6.77304 23.2875C6.77304 23.2875 8.58675 26.185 13.5626 26.295C13.5626 26.295 14.2918 25.41 15.0225 24.6287C12.2305 23.8475 11.1393 22.285 11.1393 22.285C11.1393 22.285 11.3869 22.3962 11.7488 22.6175H11.855C11.9121 22.6175 11.9407 22.6437 11.9679 22.67V22.6825C11.9965 22.7087 12.0251 22.7275 12.074 22.7275C12.6768 22.955 13.2714 23.1763 13.7612 23.3975C14.6116 23.73 15.696 24.0675 17.0281 24.29C18.7152 24.5175 20.6487 24.6225 22.8529 24.29C23.9373 24.0625 25.0285 23.8475 26.1197 23.3975C26.8218 23.065 27.6926 22.7337 28.6491 22.1675C28.6491 22.1675 27.5647 23.73 24.6516 24.5112C25.2476 25.2862 26.0898 26.1775 26.0898 26.1775C31.0711 26.0737 33.0059 23.1762 33.112 23.3C33.112 16.8487 29.8166 11.6012 29.8166 11.6012C26.8545 9.57625 24.0761 9.49875 23.5876 9.49875L23.687 9.46625L23.6965 9.4725ZM24.0013 16.83C25.2775 16.83 26.3048 17.8263 26.3048 19.05C26.3048 20.2875 25.2707 21.2825 24.0013 21.2825C22.725 21.2825 21.6977 20.2862 21.6977 19.0625C21.6977 17.825 22.7318 16.83 24.0013 16.83ZM15.76 16.83C17.0281 16.83 18.0567 17.8263 18.0567 19.05C18.0567 20.2875 17.0226 21.2825 15.7532 21.2825C14.4769 21.2825 13.4428 20.2862 13.4428 19.0625C13.4428 17.825 14.4769 16.83 15.7532 16.83H15.76Z"
        fill="white" />
</svg>