<svg width="100%" height="auto" viewBox="0 0 57 40" fill="none" xmlns="http://www.w3.org/2000/svg">
    <path
        d="M55.3595 13.2083C55.7893 12.8854 56.4286 13.1875 56.4286 13.6979V35C56.4286 37.7604 54.059 40 51.1384 40H5.29018C2.36956 40 0 37.7604 0 35V13.7083C0 13.1875 0.628209 12.8958 1.06906 13.2187C3.53781 15.0312 6.81111 17.3333 18.0527 25.0521C20.3782 26.6562 24.3018 30.0313 28.2143 30.0104C32.1489 30.0417 36.1496 26.5937 38.3869 25.0521C49.6285 17.3333 52.8908 15.0208 55.3595 13.2083ZM28.2143 26.6667C30.7712 26.7083 34.4523 23.625 36.3038 22.3542C50.929 12.3229 52.0421 11.4479 55.4146 8.94792C56.0538 8.47917 56.4286 7.75 56.4286 6.97917V5C56.4286 2.23958 54.059 0 51.1384 0H5.29018C2.36956 0 0 2.23958 0 5V6.97917C0 7.75 0.374721 8.46875 1.01395 8.94792C4.38644 11.4375 5.49958 12.3229 20.1247 22.3542C21.9763 23.625 25.6574 26.7083 28.2143 26.6667Z"
        fill="white" />
</svg>