<svg width="100%" height="auto" viewBox="0 0 11 17" fill="none" xmlns="http://www.w3.org/2000/svg">
    <path
        d="M8.00313 5.83437C8.71051 5.83437 9.38892 5.55337 9.88911 5.05317C10.3893 4.55298 10.6703 3.87457 10.6703 3.16719C10.6703 2.45981 10.3893 1.7814 9.88911 1.2812C9.38892 0.781006 8.71051 0.5 8.00313 0.5L2.66875 0.5C1.96178 0.5 1.28377 0.780842 0.783869 1.28074C0.283968 1.78065 0.00312572 2.45866 0.00312572 3.16563C0.00312572 3.87259 0.283968 4.5506 0.783869 5.05051C1.28377 5.55041 1.96178 5.83125 2.66875 5.83125C1.96137 5.83125 1.28296 6.11226 0.782764 6.61245C0.28257 7.11265 0.00156325 7.79106 0.00156325 8.49844C0.00156325 9.20582 0.28257 9.88423 0.782764 10.3844C1.28296 10.8846 1.96137 11.1656 2.66875 11.1656C2.14123 11.1653 1.62547 11.3214 1.18668 11.6143C0.74789 11.9071 0.405786 12.3234 0.203627 12.8107C0.00146852 13.2979 -0.0516648 13.8342 0.0509461 14.3516C0.153557 14.8691 0.407303 15.3445 0.780098 15.7177C1.15289 16.0909 1.62799 16.3452 2.14531 16.4484C2.66264 16.5517 3.19895 16.4992 3.68643 16.2976C4.17392 16.096 4.59067 15.7544 4.88401 15.3159C5.17734 14.8775 5.33407 14.3619 5.33438 13.8344V5.83437H8.00313ZM8.00313 5.83437C7.47591 5.83437 6.96054 5.99071 6.52218 6.28361C6.08382 6.57652 5.74216 6.99283 5.54041 7.47991C5.33865 7.96699 5.28587 8.50296 5.38872 9.02004C5.49157 9.53712 5.74545 10.0121 6.11824 10.3849C6.49104 10.7577 6.96601 11.0116 7.48309 11.1144C8.00017 11.2173 8.53614 11.1645 9.02322 10.9627C9.51029 10.761 9.92661 10.4193 10.2195 9.98094C10.5124 9.54258 10.6687 9.02721 10.6687 8.5C10.6687 7.79306 10.3878 7.11509 9.88792 6.61521C9.38803 6.11533 8.71007 5.83446 8.00313 5.83437Z"
        fill="white" />
</svg>