<svg width="100%" height="auto" viewBox="0 0 16 17" fill="none" xmlns="http://www.w3.org/2000/svg">
    <path
        d="M15.6973 7.78664L8.71133 0.801315C8.51765 0.608348 8.25539 0.5 7.982 0.5C7.7086 0.5 7.44634 0.608348 7.25266 0.801315L5.80533 2.25131L7.64533 4.09131C7.86241 4.01777 8.09577 4.00659 8.31889 4.05904C8.54201 4.11148 8.74595 4.22546 8.90753 4.38802C9.06912 4.55057 9.18187 4.75519 9.23298 4.97862C9.28409 5.20205 9.27151 5.43534 9.19666 5.65198L10.9687 7.42531C11.2309 7.33413 11.5163 7.33471 11.7782 7.42696C12.0401 7.51922 12.2629 7.69767 12.4101 7.9331C12.5573 8.16852 12.6201 8.44696 12.5884 8.72278C12.5566 8.99861 12.4322 9.25548 12.2353 9.45131C12.1216 9.56524 11.9865 9.65562 11.8378 9.71729C11.6891 9.77896 11.5297 9.8107 11.3687 9.8107C11.2077 9.8107 11.0483 9.77896 10.8995 9.71729C10.7508 9.65562 10.6157 9.56524 10.502 9.45131C10.3315 9.28037 10.2151 9.06308 10.1672 8.82648C10.1193 8.58987 10.1421 8.34441 10.2327 8.12064L8.57333 6.46998V10.82C8.69066 10.8773 8.80133 10.9553 8.89866 11.052C9.12697 11.2826 9.25504 11.5941 9.25504 11.9186C9.25504 12.2432 9.12697 12.5546 8.89866 12.7853C8.78449 12.8996 8.64892 12.9902 8.4997 13.0521C8.35048 13.1139 8.19053 13.1458 8.029 13.1458C7.86746 13.1458 7.70751 13.1139 7.55829 13.0521C7.40907 12.9902 7.2735 12.8996 7.15933 12.7853C7.04536 12.6717 6.95493 12.5368 6.89323 12.3881C6.83153 12.2395 6.79977 12.0802 6.79977 11.9193C6.79977 11.7584 6.83153 11.5991 6.89323 11.4505C6.95493 11.3019 7.04536 11.1669 7.15933 11.0533C7.28066 10.9333 7.41733 10.8426 7.56266 10.7826V6.38998C7.41301 6.3288 7.27697 6.23854 7.16243 6.12444C7.04788 6.01033 6.95711 5.87464 6.89535 5.72522C6.8336 5.5758 6.8021 5.41561 6.80267 5.25394C6.80323 5.09226 6.83586 4.9323 6.89866 4.78331L5.09066 2.96665L0.3 7.75398C-0.0999999 8.15731 -0.0999999 8.80998 0.3 9.21331L7.28666 16.198C7.38232 16.2937 7.49591 16.3697 7.62094 16.4215C7.74597 16.4733 7.87998 16.5 8.01533 16.5C8.15067 16.5 8.28469 16.4733 8.40972 16.4215C8.53475 16.3697 8.64834 16.2937 8.74399 16.198L15.6973 9.24464C15.7933 9.14902 15.8694 9.0354 15.9213 8.9103C15.9732 8.78521 16 8.65109 16 8.51564C16 8.3802 15.9732 8.24608 15.9213 8.12098C15.8694 7.99589 15.7933 7.88227 15.6973 7.78664Z"
        fill="white" />
</svg>