<svg width="43" height="40" viewBox="0 0 43 40" fill="none" xmlns="http://www.w3.org/2000/svg">
<path d="M21.261 0.00107134C15.7678 -0.0547492 10.4771 2.07275 6.55178 5.91601C2.62645 9.75926 0.387644 15.0038 0.327393 20.497C0.348559 24.8382 1.74506 29.061 4.31632 32.5588C6.88757 36.0567 10.5013 38.6496 14.6384 39.9652C15.6851 40.1556 16.0657 39.5275 16.0657 38.9757C16.0657 38.4238 16.0657 37.2058 16.0657 35.4931C10.2423 36.7301 9.00533 32.7527 9.00533 32.7527C8.61767 31.5041 7.79352 30.4367 6.6836 29.7458C4.78054 28.4898 6.83584 28.5089 6.83584 28.5089C7.49364 28.5968 8.12299 28.8325 8.67669 29.1984C9.23039 29.5642 9.69408 30.0507 10.033 30.6212C10.6236 31.6453 11.5926 32.3966 12.7315 32.7134C13.8705 33.0301 15.0882 32.8871 16.1228 32.315C16.2292 31.2728 16.7011 30.302 17.4549 29.5746C12.8114 29.0607 7.93962 27.3099 7.93962 19.4503C7.89809 17.4001 8.65563 15.4141 10.052 13.9124C9.41606 12.1522 9.49115 10.2135 10.2613 8.50773C10.2613 8.50773 12.0312 7.95585 15.9705 10.6011C19.3996 9.68732 23.0082 9.68732 26.4373 10.6011C30.4337 7.95585 32.1465 8.50773 32.1465 8.50773C32.9167 10.2135 32.9918 12.1522 32.3558 13.9124C33.7846 15.3866 34.5833 17.3593 34.5824 19.4122C34.5824 27.2909 29.6725 29.0227 25.0671 29.5365C25.5714 30.0261 25.9609 30.6213 26.2077 31.2794C26.4545 31.9376 26.5524 32.6422 26.4944 33.3426V38.9566C26.4944 38.9566 26.875 40.1556 27.9217 39.9462C32.0471 38.6225 35.6486 36.0289 38.2119 32.536C40.7752 29.0431 42.1691 24.8295 42.1946 20.497C42.1344 15.0038 39.8956 9.75926 35.9702 5.91601C32.0449 2.07275 26.7542 -0.0547492 21.261 0.00107134Z" fill="white"/>
</svg>
