<svg width="190" height="190" viewBox="0 0 190 190" fill="none" xmlns="http://www.w3.org/2000/svg">
<path d="M106.039 4.63064C111.739 10.3299 112.177 19.2978 107.355 25.4999L106.039 26.9894L53.9912 79.05H173.91C182.642 79.05 189.72 86.1284 189.72 94.86C189.72 103.592 182.642 110.67 173.91 110.67H53.9912L106.039 162.731C111.739 168.43 112.177 177.398 107.355 183.6L106.039 185.089C100.34 190.789 91.3722 191.227 85.1701 186.405L83.6806 185.089L4.63065 106.039C-1.06861 100.34 -1.50702 91.3722 3.31543 85.1701L4.63065 83.6806L83.6806 4.63064C89.8548 -1.54355 99.8652 -1.54355 106.039 4.63064Z" fill="white"/>
</svg>
