<?xml version="1.0" encoding="UTF-8"?>
<svg xmlns="http://www.w3.org/2000/svg" xmlns:xlink="http://www.w3.org/1999/xlink" viewBox="0 0 617.17 425.4">
  <defs>
    <style>
      .cls-1 {
        fill: url(#linear-gradient-2);
        opacity: .2;
      }

      .cls-2 {
        fill: url(#linear-gradient);
      }

      .cls-2, .cls-3, .cls-4 {
        mix-blend-mode: multiply;
      }

      .cls-3 {
        fill: url(#linear-gradient-4);
      }

      .cls-5 {
        mask: url(#mask-2);
      }

      .cls-6 {
        isolation: isolate;
      }

      .cls-7 {
        mask: url(#mask-3);
      }

      .cls-4 {
        fill: url(#linear-gradient-5);
      }

      .cls-8 {
        filter: url(#luminosity-noclip-4);
      }

      .cls-9 {
        filter: url(#luminosity-noclip-2);
      }

      .cls-10 {
        mask: url(#mask-1);
      }

      .cls-11 {
        mask: url(#mask);
      }

      .cls-12 {
        fill: url(#linear-gradient-3);
      }
    </style>
    <filter id="luminosity-noclip-2" data-name="luminosity-noclip" x="122.49" width="494.68" height="369" color-interpolation-filters="sRGB" filterUnits="userSpaceOnUse">
      <feFlood flood-color="#fff" result="bg"/>
      <feBlend in="SourceGraphic" in2="bg"/>
    </filter>
    <filter id="luminosity-noclip-3" x="8233.81" y="-8318.11" width="-32766" height="32766" color-interpolation-filters="sRGB" filterUnits="userSpaceOnUse">
      <feFlood flood-color="#fff" result="bg"/>
      <feBlend in="SourceGraphic" in2="bg"/>
    </filter>
    <mask id="mask-1" x="8233.81" y="-8318.11" width="-32766" height="32766" maskUnits="userSpaceOnUse"/>
    <linearGradient id="linear-gradient" x1="369.83" y1="369" x2="369.83" y2="0" gradientUnits="userSpaceOnUse">
      <stop offset="0" stop-color="#000"/>
      <stop offset=".37" stop-color="#010101"/>
      <stop offset=".51" stop-color="#080808"/>
      <stop offset=".6" stop-color="#141414"/>
      <stop offset=".68" stop-color="#252525"/>
      <stop offset=".75" stop-color="#3b3b3b"/>
      <stop offset=".8" stop-color="#565656"/>
      <stop offset=".86" stop-color="#777"/>
      <stop offset=".91" stop-color="#9c9c9c"/>
      <stop offset=".95" stop-color="#c7c7c7"/>
      <stop offset=".99" stop-color="#f5f5f5"/>
      <stop offset="1" stop-color="#fff"/>
    </linearGradient>
    <mask id="mask" x="122.49" width="494.68" height="369" maskUnits="userSpaceOnUse">
      <g class="cls-9">
        <g class="cls-10">
          <path class="cls-2" d="M617.17,14.92V369H122.49L491.49,0h110.76c8.24,0,14.92,6.68,14.92,14.92Z"/>
        </g>
      </g>
    </mask>
    <linearGradient id="linear-gradient-2" x1="369.83" y1="369" x2="369.83" y2="0" gradientUnits="userSpaceOnUse">
      <stop offset="0" stop-color="#ededed"/>
      <stop offset=".63" stop-color="#eee"/>
      <stop offset=".86" stop-color="#f5f5f5"/>
      <stop offset="1" stop-color="#fff"/>
    </linearGradient>
    <linearGradient id="linear-gradient-3" x1="0" y1="396.94" x2="617.17" y2="396.94" gradientUnits="userSpaceOnUse">
      <stop offset="0" stop-color="#a2a4a8"/>
      <stop offset=".08" stop-color="#b1b3b6"/>
      <stop offset=".23" stop-color="#c4c6c9"/>
      <stop offset=".39" stop-color="#d1d3d6"/>
      <stop offset=".6" stop-color="#d9dbdd"/>
      <stop offset="1" stop-color="#dcdee0"/>
    </linearGradient>
    <filter id="luminosity-noclip-4" x="3.75" y="420.38" width="609.66" height="5.03" color-interpolation-filters="sRGB" filterUnits="userSpaceOnUse">
      <feFlood flood-color="#fff" result="bg"/>
      <feBlend in="SourceGraphic" in2="bg"/>
    </filter>
    <filter id="luminosity-noclip-5" x="8233.81" y="-8318.11" width="-32766" height="32766" color-interpolation-filters="sRGB" filterUnits="userSpaceOnUse">
      <feFlood flood-color="#fff" result="bg"/>
      <feBlend in="SourceGraphic" in2="bg"/>
    </filter>
    <mask id="mask-3" x="8233.81" y="-8318.11" width="-32766" height="32766" maskUnits="userSpaceOnUse"/>
    <linearGradient id="linear-gradient-4" x1="308.58" y1="425.4" x2="308.58" y2="420.38" gradientUnits="userSpaceOnUse">
      <stop offset="0" stop-color="#1a1a1a"/>
      <stop offset=".55" stop-color="#0d0d0d"/>
      <stop offset="1" stop-color="#000"/>
    </linearGradient>
    <mask id="mask-2" x="3.75" y="420.38" width="609.66" height="5.03" maskUnits="userSpaceOnUse">
      <g class="cls-8">
        <g class="cls-7">
          <path class="cls-3" d="M613.42,420.38c-2.73,3.09-6.72,5.03-11.17,5.03H14.92c-4.45,0-8.44-1.94-11.17-5.03H613.42Z"/>
        </g>
      </g>
    </mask>
    <linearGradient id="linear-gradient-5" x1="308.58" y1="425.4" x2="308.58" y2="420.38" gradientUnits="userSpaceOnUse">
      <stop offset="0" stop-color="#000"/>
      <stop offset=".09" stop-color="#0c0c0c"/>
      <stop offset=".25" stop-color="#2d2d2d"/>
      <stop offset=".47" stop-color="#626262"/>
      <stop offset=".73" stop-color="#acacac"/>
      <stop offset="1" stop-color="#fff"/>
    </linearGradient>
  </defs>
  <g class="cls-6">
    <g id="object">
      <g>
        <path d="M617.17,14.92V410.49c0,8.24-6.68,14.92-14.92,14.92H14.92C6.68,425.4,0,418.73,0,410.49V14.92C0,6.68,6.68,0,14.92,0H602.25c8.24,0,14.92,6.68,14.92,14.92ZM25.8,27.68V369.01H591.37V27.68H25.8Z"/>
        <g class="cls-11">
          <path class="cls-1" d="M617.17,14.92V369H122.49L491.49,0h110.76c8.24,0,14.92,6.68,14.92,14.92Z"/>
        </g>
        <g>
          <path class="cls-12" d="M617.17,368.47v42.02c0,3.79-1.42,7.26-3.75,9.88-2.73,3.09-6.72,5.03-11.17,5.03H14.92c-4.45,0-8.44-1.94-11.17-5.03-2.34-2.63-3.75-6.09-3.75-9.88v-42.02H617.17Z"/>
          <g class="cls-5">
            <path class="cls-4" d="M613.42,420.38c-2.73,3.09-6.72,5.03-11.17,5.03H14.92c-4.45,0-8.44-1.94-11.17-5.03H613.42Z"/>
          </g>
        </g>
      </g>
    </g>
  </g>
</svg>