<?xml version="1.0" encoding="UTF-8"?>
<svg xmlns="http://www.w3.org/2000/svg" xmlns:xlink="http://www.w3.org/1999/xlink" viewBox="0 0 617.17 425.4">
  <defs>
    <style>
      .cls-1 {
        fill: url(#linear-gradient-3);
      }

      .cls-1, .cls-2 {
        mix-blend-mode: multiply;
      }

      .cls-3 {
        isolation: isolate;
      }

      .cls-2 {
        fill: url(#linear-gradient-2);
      }

      .cls-4 {
        filter: url(#luminosity-noclip-2);
      }

      .cls-5 {
        mask: url(#mask-1);
      }

      .cls-6 {
        mask: url(#mask);
      }

      .cls-7 {
        fill: url(#linear-gradient);
      }
    </style>
    <linearGradient id="linear-gradient" x1=".8" y1="396.89" x2="616.37" y2="396.89" gradientUnits="userSpaceOnUse">
      <stop offset="0" stop-color="#a2a4a8"/>
      <stop offset=".08" stop-color="#b1b3b6"/>
      <stop offset=".23" stop-color="#c4c6c9"/>
      <stop offset=".39" stop-color="#d1d3d6"/>
      <stop offset=".6" stop-color="#d9dbdd"/>
      <stop offset="1" stop-color="#dcdee0"/>
    </linearGradient>
    <filter id="luminosity-noclip-2" data-name="luminosity-noclip" x="4.54" y="420.27" width="608.09" height="5.02" color-interpolation-filters="sRGB" filterUnits="userSpaceOnUse">
      <feFlood flood-color="#fff" result="bg"/>
      <feBlend in="SourceGraphic" in2="bg"/>
    </filter>
    <filter id="luminosity-noclip-3" x="8233.81" y="-8318.11" width="-32766" height="32766" color-interpolation-filters="sRGB" filterUnits="userSpaceOnUse">
      <feFlood flood-color="#fff" result="bg"/>
      <feBlend in="SourceGraphic" in2="bg"/>
    </filter>
    <mask id="mask-1" x="8233.81" y="-8318.11" width="-32766" height="32766" maskUnits="userSpaceOnUse"/>
    <linearGradient id="linear-gradient-2" x1="308.58" y1="425.29" x2="308.58" y2="420.27" gradientUnits="userSpaceOnUse">
      <stop offset="0" stop-color="#1a1a1a"/>
      <stop offset=".55" stop-color="#0d0d0d"/>
      <stop offset="1" stop-color="#000"/>
    </linearGradient>
    <mask id="mask" x="4.54" y="420.27" width="608.09" height="5.02" maskUnits="userSpaceOnUse">
      <g class="cls-4">
        <g class="cls-5">
          <path class="cls-2" d="M612.63,420.27c-2.72,3.08-6.7,5.02-11.14,5.02H15.68c-4.44,0-8.42-1.94-11.14-5.02H612.63Z"/>
        </g>
      </g>
    </mask>
    <linearGradient id="linear-gradient-3" x1="308.58" y1="425.29" x2="308.58" y2="420.27" gradientUnits="userSpaceOnUse">
      <stop offset="0" stop-color="#000"/>
      <stop offset=".09" stop-color="#0c0c0c"/>
      <stop offset=".25" stop-color="#2d2d2d"/>
      <stop offset=".47" stop-color="#626262"/>
      <stop offset=".73" stop-color="#acacac"/>
      <stop offset="1" stop-color="#fff"/>
    </linearGradient>
  </defs>
  <g class="cls-3">
    <g id="object">
      <g>
        <path d="M616.37,15V409.54c0,8.22-6.66,14.88-14.88,14.88H15.68c-8.22,0-14.88-6.66-14.88-14.88V15C.8,6.78,7.46,.12,15.68,.12H601.49c8.22,0,14.88,6.66,14.88,14.88ZM26.53,27.73V368.17H590.64V27.73H26.53Z"/>
        <g>
          <path class="cls-7" d="M616.37,368.5v41.91c0,3.78-1.41,7.24-3.74,9.86-2.72,3.08-6.7,5.02-11.14,5.02H15.68c-4.44,0-8.42-1.94-11.14-5.02-2.33-2.62-3.74-6.08-3.74-9.86v-41.91H616.37Z"/>
          <g class="cls-6">
            <path class="cls-1" d="M612.63,420.27c-2.72,3.08-6.7,5.02-11.14,5.02H15.68c-4.44,0-8.42-1.94-11.14-5.02H612.63Z"/>
          </g>
        </g>
      </g>
    </g>
  </g>
</svg>