<svg width="100%" height="auto" viewBox="0 0 16 17" fill="none" xmlns="http://www.w3.org/2000/svg">
    <path
        d="M14.2857 0.5H1.71429C0.767857 0.5 0 1.26786 0 2.21429V14.7857C0 15.7321 0.767857 16.5 1.71429 16.5H14.2857C15.2321 16.5 16 15.7321 16 14.7857V2.21429C16 1.26786 15.2321 0.5 14.2857 0.5ZM8.70714 12.9786C8.70714 14.5357 7.79286 15.2464 6.46071 15.2464C5.25714 15.2464 4.56071 14.625 4.20357 13.8714L5.42857 13.1321C5.66429 13.55 5.87857 13.9036 6.39643 13.9036C6.88929 13.9036 7.20357 13.7107 7.20357 12.9571V7.84643H8.70714V12.9786ZM12.2643 15.2464C10.8679 15.2464 9.96429 14.5821 9.525 13.7107L10.75 13.0036C11.0714 13.5286 11.4929 13.9179 12.2321 13.9179C12.8536 13.9179 13.2536 13.6071 13.2536 13.175C13.2536 12.6607 12.8464 12.4786 12.1571 12.175L11.7821 12.0143C10.6964 11.5536 9.97857 10.9714 9.97857 9.74643C9.97857 8.61786 10.8393 7.76071 12.1786 7.76071C13.1357 7.76071 13.8214 8.09286 14.3143 8.96429L13.1429 9.71429C12.8857 9.25357 12.6071 9.07143 12.175 9.07143C11.7357 9.07143 11.4571 9.35 11.4571 9.71429C11.4571 10.1643 11.7357 10.3464 12.3821 10.6286L12.7571 10.7893C14.0357 11.3357 14.7536 11.8964 14.7536 13.1536C14.7536 14.5036 13.6893 15.2464 12.2643 15.2464Z"
        fill="white" />
</svg>