<svg width="40" height="40" viewBox="0 0 40 40" fill="none" xmlns="http://www.w3.org/2000/svg">
<path d="M36.8009 0H3.41786C1.59375 0 0 1.3125 0 3.11518V36.5723C0 38.3848 1.59375 40 3.41786 40H36.7911C38.625 40 40 38.3741 40 36.5723V3.11518C40.0107 1.3125 38.625 0 36.8009 0ZM12.3991 33.342H6.66875V15.525H12.3991V33.342ZM9.73214 12.8161H9.69107C7.85714 12.8161 6.66964 11.4509 6.66964 9.74196C6.66964 8.00179 7.88839 6.66875 9.76339 6.66875C11.6384 6.66875 12.7857 7.99196 12.8268 9.74196C12.8259 11.4509 11.6384 12.8161 9.73214 12.8161ZM33.342 33.342H27.6116V23.6C27.6116 21.2661 26.7777 19.6714 24.7045 19.6714C23.1205 19.6714 22.183 20.7429 21.7661 21.7866C21.6098 22.1616 21.5679 22.6723 21.5679 23.1938V33.342H15.8375V15.525H21.5679V18.0045C22.4018 16.817 23.7045 15.108 26.7357 15.108C30.4973 15.108 33.3429 17.5875 33.3429 22.933L33.342 33.342Z" fill="white"/>
</svg>
