<svg width="291" height="100" viewBox="0 0 291 100" fill="none" xmlns="http://www.w3.org/2000/svg">
<g clip-path="url(#clip0_84_2571)">
<path d="M73.3049 1.80973H51.8611C51.8611 2.1425 51.8611 2.4388 51.8611 2.73055C51.8611 11.1866 51.8611 19.6426 51.8477 28.1032C51.8477 28.591 51.9367 28.9101 52.4038 29.1881C53.4182 29.7944 53.8008 30.9796 53.4716 32.1284C53.1557 33.2452 52.1547 33.9974 50.9935 33.9974C49.8902 33.9974 48.9025 33.2498 48.5644 32.1557C48.2174 31.0434 48.6 29.8081 49.6099 29.2018C50.1126 28.9009 50.1705 28.5454 50.166 28.0439C50.1571 19.0363 50.1571 10.0242 50.1571 1.01655C50.1601 0.338849 50.4923 0 51.1537 0C58.7702 0 66.3913 0 74.0078 0C74.297 0 74.5906 0 74.9599 0C74.9777 0.323654 74.9999 0.588048 74.9999 0.852441C74.9821 20.9783 74.9688 41.1041 74.9332 61.2344C74.9243 66.1303 74.2303 70.9304 72.6553 75.571C72.4907 76.0496 72.5708 76.4097 72.8689 76.8154C73.6341 77.8411 73.4828 79.2953 72.5753 80.1614C71.7122 80.9865 70.2752 81.0047 69.2831 80.1978C68.4244 79.4958 68.153 77.9733 68.8693 76.9932C69.2341 76.4918 69.8525 76.1089 70.4353 75.8809C70.898 75.7032 71.1694 75.5299 71.3207 75.0376C72.6776 70.5976 73.3316 66.0391 73.336 61.3986C73.3449 41.8745 73.3182 22.3504 73.3049 2.82628C73.3049 2.50718 73.3049 2.18808 73.3049 1.81429V1.80973Z" fill="white"/>
<path d="M57.5157 38.72C57.5157 30.6149 57.5112 22.5099 57.5246 14.4049C57.5246 13.8579 57.4133 13.5069 56.9195 13.1923C55.9541 12.5815 55.5848 11.3735 55.9052 10.2885C56.2255 9.1945 57.271 8.41044 58.3921 8.415C59.4688 8.41956 60.4475 9.1398 60.8079 10.1791C61.1816 11.2777 60.8479 12.5496 59.8781 13.1741C59.3531 13.5114 59.2463 13.8943 59.2463 14.4596C59.2463 23.8455 59.233 33.227 59.2152 42.6129C59.2018 48.9857 59.2419 55.3631 59.1306 61.7313C59.0417 66.8642 57.8315 71.7053 55.002 76.0313C52.9422 79.1858 50.2194 81.5198 46.7982 82.9557C42.4828 84.7654 38.0071 84.9296 33.487 84.0498C29.0425 83.1882 25.1898 81.1688 22.1778 77.6268C20.9144 76.1408 19.8867 74.5043 19.1392 72.69C18.9168 72.1521 18.6276 71.8056 18.0359 71.6324C16.897 71.3042 16.2786 70.3332 16.3097 69.1389C16.3364 68.0585 17.066 67.0739 18.0537 66.7867C19.1081 66.4767 20.2648 66.8915 20.8476 67.7896C21.4794 68.7651 21.4215 70.0232 20.6341 70.9213C20.3404 71.2586 20.3049 71.5275 20.465 71.9241C21.4215 74.2763 22.8185 76.3049 24.6248 78.0508C26.5645 79.9243 28.8512 81.2326 31.3738 81.9848C36.2053 83.4253 41.0813 83.5848 45.855 81.7067C48.3509 80.7266 50.4908 79.1585 52.2793 77.0798C55.3446 73.5242 56.9017 69.2665 57.2621 64.6624C57.618 60.0994 57.5023 55.4907 57.5468 50.9049C57.5824 46.8387 57.5557 42.777 57.5557 38.7108H57.5157V38.72Z" fill="white"/>
<path d="M50.1883 53.8952C50.1883 51.3881 50.1794 48.8763 50.1928 46.3691C50.1928 45.9042 50.0771 45.6033 49.65 45.3435C48.6356 44.7235 48.2352 43.5383 48.5644 42.4078C48.8892 41.2864 49.8813 40.5434 51.0469 40.5434C52.1547 40.5434 53.1557 41.3092 53.4583 42.3896C53.7875 43.5474 53.4093 44.7098 52.3861 45.3298C51.9234 45.6079 51.83 45.9315 51.83 46.4238C51.8344 51.1647 51.8389 55.9101 51.8077 60.6509C51.7855 64.2066 51.2338 67.6574 49.5432 70.8164C47.4967 74.6501 44.2668 76.6103 40.0492 76.9431C37.5845 77.1391 35.1687 76.9203 32.8153 76.1043C28.1973 74.5042 25.7014 71.0899 24.8472 66.2944C24.518 64.4436 24.2778 62.5792 24.0375 60.7148C23.9619 60.1267 23.735 59.9307 23.1477 59.9307C17.3196 59.9489 11.4915 59.9307 5.66345 59.9626C5.36982 59.9626 4.97387 60.1905 4.80036 60.4413C4.06629 61.4943 2.99855 61.9501 1.87297 61.6037C0.769635 61.2618 0.097847 60.3273 0.0889491 59.1284C0.0800513 57.9341 0.796328 56.9677 1.9397 56.6258C3.01189 56.3067 4.15082 56.7443 4.75587 57.8292C5.02726 58.3124 5.38317 58.3079 5.80137 58.3079C11.9987 58.3079 18.1916 58.3215 24.389 58.2851C25.1586 58.2805 25.3811 58.5495 25.4701 59.2652C25.737 61.4304 26.0573 63.5866 26.3688 65.7428C27.1562 71.254 30.7109 74.755 36.1164 75.3613C38.1495 75.5892 40.1738 75.6484 42.158 75.0376C46.0864 73.8342 48.3064 70.9304 49.3074 67.0511C49.8413 64.9861 50.0459 62.8117 50.1839 60.6737C50.3307 58.4264 50.215 56.1608 50.215 53.8998H50.1794L50.1883 53.8952Z" fill="white"/>
<path d="M37.887 92.5104C32.5527 92.4511 27.4854 91.3206 22.8096 88.622C20.1224 87.0721 17.8312 85.0253 15.8648 82.5728C13.9962 80.2389 12.6037 77.6496 11.5271 74.8598C11.358 74.4177 11.2334 73.9573 11.0733 73.5105C10.7708 72.6718 10.615 71.8375 9.5562 71.4318C8.23042 70.9258 7.86561 69.1435 8.62638 67.9081C9.3738 66.6955 11.0555 66.3354 12.1722 67.156C13.3378 68.0084 13.627 69.8045 12.6349 70.8666C12.0832 71.4592 12.1455 71.9515 12.3412 72.6079C13.4223 76.2319 15.1307 79.5186 17.5776 82.3404C20.1135 85.2624 23.2011 87.4413 26.7736 88.8773C30.564 90.3952 34.5147 91.0061 38.5632 90.9787C43.6305 90.9377 48.5021 89.912 52.9644 87.3866C55.3401 86.0419 57.4534 84.2914 59.2418 82.1489C62.1247 78.6935 63.9443 74.7048 64.9364 70.3059C65.2212 69.0386 65.4169 67.7486 65.6483 66.4676C65.7328 65.9844 65.7239 65.5924 65.2212 65.2459C64.2558 64.5804 63.9443 63.3177 64.3625 62.2328C64.7496 61.2208 65.8129 60.5324 66.8628 60.6099C67.984 60.6966 68.9138 61.5034 69.1585 62.6111C69.4165 63.7735 68.9316 64.9041 67.8638 65.4511C67.4278 65.6744 67.2766 65.9571 67.2187 66.4266C66.8628 69.4534 66.1332 72.3891 65.0121 75.2108C62.7698 80.868 59.2196 85.3991 54.0099 88.467C50.1749 90.7234 46.0196 91.9314 41.6285 92.3007C40.3873 92.4055 39.1371 92.4466 37.8914 92.5149L37.887 92.5104Z" fill="white"/>
<path d="M38.0384 98.5231C42.4873 98.4684 46.567 97.9441 50.5399 96.6176C51.0426 96.4489 51.1272 96.1298 51.2206 95.6922C51.4653 94.5708 52.3995 93.7777 53.4495 93.7366C54.5528 93.6956 55.6161 94.4386 55.9453 95.478C56.2746 96.5219 55.8341 97.8119 54.9132 98.3772C54.0679 98.8969 53.1648 98.9561 52.3595 98.3453C51.79 97.9168 51.274 97.9304 50.66 98.1356C45.8685 99.7037 40.9436 100.178 35.943 99.9499C34.6038 99.886 33.2603 99.7402 31.93 99.5305C30.5153 99.3071 29.105 99.0336 27.7214 98.6598C26.2577 98.2678 24.8073 97.7983 23.4014 97.2376C22.0178 96.6814 20.6565 96.0341 19.3485 95.3048C14.944 92.8432 11.2959 89.4835 8.31959 85.3444C6.67349 83.0515 5.27208 80.6081 4.21768 77.9824C3.5281 76.273 2.99867 74.4952 2.36248 72.7629C2.26905 72.5122 2.00212 72.2387 1.75742 72.1475C0.631846 71.7236 -0.0265946 70.7936 0.0134457 69.5583C0.0490371 68.4597 0.760865 67.5434 1.80191 67.2517C2.86966 66.9554 4.00858 67.3839 4.57359 68.2956C5.16975 69.2574 5.14751 70.5657 4.3467 71.3543C3.79503 71.8968 3.83507 72.3572 4.01748 73.0091C4.83608 75.9448 6.02394 78.7163 7.51878 81.3466C8.99583 83.9449 10.8021 86.2743 12.8486 88.4396C14.944 90.6505 17.3153 92.4967 19.9402 93.9053C22.2848 95.168 24.8029 96.1481 27.3254 96.996C30.8845 98.1903 34.6038 98.4729 38.0429 98.5276L38.0384 98.5231Z" fill="white"/>
<path d="M65.9509 30.7107C65.9509 25.2678 65.9464 19.8204 65.9598 14.3775C65.9598 13.8533 65.8575 13.5297 65.3725 13.2334C64.3582 12.6088 63.9934 11.4328 64.3315 10.2794C64.6473 9.19452 65.6484 8.42869 66.7472 8.41958C67.8951 8.41046 68.9272 9.16717 69.2609 10.2612C69.599 11.3644 69.2075 12.5906 68.2154 13.2242C67.7749 13.5069 67.6504 13.8123 67.6504 14.3137C67.6504 25.204 67.6415 36.0943 67.6281 46.9846C67.6281 47.486 67.6148 47.9099 68.1709 48.2427C69.1719 48.8399 69.5545 50.0296 69.2475 51.11C68.9317 52.2177 67.9751 52.9699 66.854 52.9927C65.7373 53.0155 64.7141 52.2907 64.3715 51.2331C64.0067 50.1208 64.3626 48.8946 65.3681 48.2655C65.8797 47.9464 65.9776 47.5817 65.9776 47.0484C65.9687 41.6055 65.9731 36.1581 65.9731 30.7152H65.9509V30.7107Z" fill="white"/>
</g>
<g clip-path="url(#clip1_84_2571)">
<path d="M92.68 45.85C92.68 47.51 92.38 48.88 91.78 49.96C91.2 51.04 90.42 51.88 89.44 52.48C88.48 53.1 87.33 53.63 85.99 54.07L84.67 50.59C85.55 50.25 86.21 49.86 86.65 49.42C87.09 48.98 87.38 48.47 87.52 47.89C87.68 47.31 87.76 46.57 87.76 45.67V28.21H92.68V45.85ZM117.111 49H112.281L111.921 40.87C111.821 38.93 111.771 37.2 111.771 35.68C111.771 34.52 111.801 33.42 111.861 32.38L108.651 46.81H104.001L100.581 32.38C100.701 34.12 100.761 35.76 100.761 37.3C100.761 38.46 100.731 39.67 100.671 40.93L100.311 49H95.5115L97.0715 28.21H103.281L106.401 42.31L109.311 28.21H115.551L117.111 49ZM131.005 49L129.925 44.53H123.865L122.815 49H117.715L123.985 28.21H129.955L136.225 49H131.005ZM124.705 40.96H129.085L126.895 31.78L124.705 40.96ZM145.948 27.7C147.248 27.7 148.398 27.89 149.398 28.27C150.418 28.65 151.378 29.22 152.278 29.98L149.938 32.77C149.318 32.29 148.708 31.93 148.108 31.69C147.508 31.45 146.868 31.33 146.188 31.33C144.788 31.33 143.678 31.92 142.858 33.1C142.058 34.28 141.658 36.1 141.658 38.56C141.658 40.98 142.058 42.78 142.858 43.96C143.678 45.12 144.808 45.7 146.248 45.7C147.008 45.7 147.698 45.56 148.318 45.28C148.938 44.98 149.608 44.56 150.328 44.02L152.518 46.84C151.738 47.62 150.788 48.26 149.668 48.76C148.568 49.26 147.348 49.51 146.008 49.51C144.088 49.51 142.418 49.09 140.998 48.25C139.578 47.41 138.468 46.17 137.668 44.53C136.888 42.87 136.498 40.88 136.498 38.56C136.498 36.3 136.898 34.35 137.698 32.71C138.518 31.07 139.638 29.83 141.058 28.99C142.498 28.13 144.128 27.7 145.948 27.7ZM162.528 27.7C165.488 27.7 167.788 28.65 169.428 30.55C171.088 32.45 171.918 35.13 171.918 38.59C171.918 40.85 171.538 42.8 170.778 44.44C170.038 46.08 168.958 47.34 167.538 48.22C166.138 49.08 164.468 49.51 162.528 49.51C160.588 49.51 158.918 49.08 157.518 48.22C156.118 47.36 155.038 46.12 154.278 44.5C153.538 42.86 153.168 40.89 153.168 38.59C153.168 36.35 153.538 34.41 154.278 32.77C155.038 31.13 156.118 29.88 157.518 29.02C158.918 28.14 160.588 27.7 162.528 27.7ZM162.528 31.3C161.108 31.3 160.048 31.88 159.348 33.04C158.668 34.18 158.328 36.03 158.328 38.59C158.328 41.15 158.678 43.01 159.378 44.17C160.078 45.33 161.128 45.91 162.528 45.91C163.968 45.91 165.028 45.34 165.708 44.2C166.408 43.04 166.758 41.17 166.758 38.59C166.758 36.01 166.408 34.15 165.708 33.01C165.008 31.87 163.948 31.3 162.528 31.3ZM181.56 27.7C183.12 27.7 184.47 27.92 185.61 28.36C186.77 28.8 187.82 29.47 188.76 30.37L186.48 33.04C185.06 31.88 183.54 31.3 181.92 31.3C181.06 31.3 180.38 31.48 179.88 31.84C179.38 32.18 179.13 32.68 179.13 33.34C179.13 33.8 179.24 34.18 179.46 34.48C179.68 34.76 180.07 35.03 180.63 35.29C181.19 35.55 182.03 35.86 183.15 36.22C185.27 36.9 186.83 37.74 187.83 38.74C188.83 39.72 189.33 41.12 189.33 42.94C189.33 44.24 189 45.39 188.34 46.39C187.68 47.37 186.73 48.14 185.49 48.7C184.25 49.24 182.78 49.51 181.08 49.51C179.38 49.51 177.87 49.24 176.55 48.7C175.25 48.16 174.13 47.44 173.19 46.54L175.68 43.81C176.48 44.49 177.3 45 178.14 45.34C179 45.68 179.93 45.85 180.93 45.85C181.95 45.85 182.75 45.63 183.33 45.19C183.93 44.73 184.23 44.1 184.23 43.3C184.23 42.78 184.12 42.35 183.9 42.01C183.68 41.65 183.3 41.33 182.76 41.05C182.22 40.77 181.44 40.47 180.42 40.15C178.12 39.45 176.48 38.59 175.5 37.57C174.54 36.55 174.06 35.26 174.06 33.7C174.06 32.5 174.38 31.45 175.02 30.55C175.66 29.63 176.55 28.93 177.69 28.45C178.83 27.95 180.12 27.7 181.56 27.7ZM205.613 28.21L205.133 31.99H200.003V49H195.083V31.99H189.713V28.21H205.613ZM217.05 49L215.97 44.53H209.91L208.86 49H203.76L210.03 28.21H216L222.27 49H217.05ZM210.75 40.96H215.13L212.94 31.78L210.75 40.96ZM225.68 44.08C226.42 44.08 227.05 44.35 227.57 44.89C228.11 45.41 228.38 46.04 228.38 46.78C228.38 47.54 228.11 48.19 227.57 48.73C227.05 49.25 226.42 49.51 225.68 49.51C224.92 49.51 224.27 49.25 223.73 48.73C223.21 48.19 222.95 47.54 222.95 46.78C222.95 46.04 223.21 45.41 223.73 44.89C224.27 44.35 224.92 44.08 225.68 44.08ZM237.027 28.21C240.287 28.21 242.897 28.95 244.857 30.43C246.837 31.89 247.827 34.58 247.827 38.5C247.827 42.36 246.867 45.08 244.947 46.66C243.027 48.22 240.537 49 237.477 49H231.237V28.21H237.027ZM236.157 31.78V45.43H237.777C239.397 45.43 240.627 44.93 241.467 43.93C242.307 42.91 242.727 41.1 242.727 38.5C242.727 36.72 242.517 35.34 242.097 34.36C241.677 33.38 241.107 32.71 240.387 32.35C239.667 31.97 238.777 31.78 237.717 31.78H236.157ZM263.528 28.21L263.018 31.72H255.698V36.7H262.088V40.15H255.698V45.46H263.528V49H250.778V28.21H263.528ZM282.139 28.21L276.349 49H270.229L264.229 28.21H269.419L273.379 45.16L277.099 28.21H282.139Z" fill="white"/>
<path d="M99.418 61.598L96.898 74H94.702L92.416 63.614L90.112 74H87.97L85.45 61.598H87.124L89.122 72.506L91.516 61.598H93.334L95.782 72.506L97.852 61.598H99.418ZM108.569 68.978C108.569 69.254 108.557 69.536 108.533 69.824H102.485C102.557 70.868 102.821 71.636 103.277 72.128C103.733 72.62 104.321 72.866 105.041 72.866C105.497 72.866 105.917 72.8 106.301 72.668C106.685 72.536 107.087 72.326 107.507 72.038L108.227 73.028C107.219 73.82 106.115 74.216 104.915 74.216C103.595 74.216 102.563 73.784 101.819 72.92C101.087 72.056 100.721 70.868 100.721 69.356C100.721 68.372 100.877 67.502 101.189 66.746C101.513 65.978 101.969 65.378 102.557 64.946C103.157 64.514 103.859 64.298 104.663 64.298C105.923 64.298 106.889 64.712 107.561 65.54C108.233 66.368 108.569 67.514 108.569 68.978ZM106.931 68.492C106.931 67.556 106.745 66.842 106.373 66.35C106.001 65.858 105.443 65.612 104.699 65.612C103.343 65.612 102.605 66.608 102.485 68.6H106.931V68.492ZM115.552 64.298C116.632 64.298 117.49 64.736 118.126 65.612C118.762 66.476 119.08 67.688 119.08 69.248C119.08 70.232 118.93 71.102 118.63 71.858C118.33 72.602 117.898 73.184 117.334 73.604C116.77 74.012 116.11 74.216 115.354 74.216C114.358 74.216 113.518 73.796 112.834 72.956L112.672 74H111.214V60.698L112.87 60.5V65.702C113.554 64.766 114.448 64.298 115.552 64.298ZM114.958 72.902C115.69 72.902 116.26 72.608 116.668 72.02C117.088 71.42 117.298 70.496 117.298 69.248C117.298 67.964 117.106 67.04 116.722 66.476C116.338 65.9 115.792 65.612 115.084 65.612C114.244 65.612 113.506 66.104 112.87 67.088V71.624C113.122 72.02 113.428 72.332 113.788 72.56C114.16 72.788 114.55 72.902 114.958 72.902ZM129.347 61.598C131.219 61.598 132.719 62.036 133.847 62.912C134.987 63.776 135.557 65.384 135.557 67.736C135.557 70.028 134.987 71.648 133.847 72.596C132.719 73.532 131.345 74 129.725 74H126.755V61.598H129.347ZM128.465 62.966V72.65H129.851C131.003 72.65 131.939 72.296 132.659 71.588C133.379 70.88 133.739 69.596 133.739 67.736C133.739 66.428 133.553 65.426 133.181 64.73C132.809 64.022 132.335 63.554 131.759 63.326C131.183 63.086 130.505 62.966 129.725 62.966H128.465ZM145.413 68.978C145.413 69.254 145.401 69.536 145.377 69.824H139.329C139.401 70.868 139.665 71.636 140.121 72.128C140.577 72.62 141.165 72.866 141.885 72.866C142.341 72.866 142.761 72.8 143.145 72.668C143.529 72.536 143.931 72.326 144.351 72.038L145.071 73.028C144.063 73.82 142.959 74.216 141.759 74.216C140.439 74.216 139.407 73.784 138.663 72.92C137.931 72.056 137.565 70.868 137.565 69.356C137.565 68.372 137.721 67.502 138.033 66.746C138.357 65.978 138.813 65.378 139.401 64.946C140.001 64.514 140.703 64.298 141.507 64.298C142.767 64.298 143.733 64.712 144.405 65.54C145.077 66.368 145.413 67.514 145.413 68.978ZM143.775 68.492C143.775 67.556 143.589 66.842 143.217 66.35C142.845 65.858 142.287 65.612 141.543 65.612C140.187 65.612 139.449 66.608 139.329 68.6H143.775V68.492ZM154.953 64.514L151.731 74H149.733L146.457 64.514H148.257L150.741 72.524L153.207 64.514H154.953ZM163.94 68.978C163.94 69.254 163.928 69.536 163.904 69.824H157.856C157.928 70.868 158.192 71.636 158.648 72.128C159.104 72.62 159.692 72.866 160.412 72.866C160.868 72.866 161.288 72.8 161.672 72.668C162.056 72.536 162.458 72.326 162.878 72.038L163.598 73.028C162.59 73.82 161.486 74.216 160.286 74.216C158.966 74.216 157.934 73.784 157.19 72.92C156.458 72.056 156.092 70.868 156.092 69.356C156.092 68.372 156.248 67.502 156.56 66.746C156.884 65.978 157.34 65.378 157.928 64.946C158.528 64.514 159.23 64.298 160.034 64.298C161.294 64.298 162.26 64.712 162.932 65.54C163.604 66.368 163.94 67.514 163.94 68.978ZM162.302 68.492C162.302 67.556 162.116 66.842 161.744 66.35C161.372 65.858 160.814 65.612 160.07 65.612C158.714 65.612 157.976 66.608 157.856 68.6H162.302V68.492ZM168.475 74.216C167.863 74.216 167.377 74.036 167.017 73.676C166.669 73.304 166.495 72.788 166.495 72.128V60.698L168.151 60.5V72.092C168.151 72.356 168.193 72.548 168.277 72.668C168.373 72.788 168.529 72.848 168.745 72.848C168.973 72.848 169.177 72.812 169.357 72.74L169.789 73.892C169.393 74.108 168.955 74.216 168.475 74.216ZM175.335 64.298C176.667 64.298 177.699 64.742 178.431 65.63C179.175 66.518 179.547 67.724 179.547 69.248C179.547 70.232 179.379 71.102 179.043 71.858C178.707 72.602 178.221 73.184 177.585 73.604C176.949 74.012 176.193 74.216 175.317 74.216C173.985 74.216 172.947 73.772 172.203 72.884C171.459 71.996 171.087 70.79 171.087 69.266C171.087 68.282 171.255 67.418 171.591 66.674C171.927 65.918 172.413 65.336 173.049 64.928C173.685 64.508 174.447 64.298 175.335 64.298ZM175.335 65.63C173.691 65.63 172.869 66.842 172.869 69.266C172.869 71.678 173.685 72.884 175.317 72.884C176.949 72.884 177.765 71.672 177.765 69.248C177.765 66.836 176.955 65.63 175.335 65.63ZM186.638 64.298C187.85 64.298 188.738 64.73 189.302 65.594C189.866 66.458 190.148 67.676 190.148 69.248C190.148 70.736 189.824 71.936 189.176 72.848C188.528 73.76 187.61 74.216 186.422 74.216C185.366 74.216 184.538 73.856 183.938 73.136V77.636L182.282 77.834V64.514H183.704L183.83 65.792C184.178 65.312 184.598 64.946 185.09 64.694C185.582 64.43 186.098 64.298 186.638 64.298ZM186.026 72.866C187.586 72.866 188.366 71.66 188.366 69.248C188.366 66.824 187.652 65.612 186.224 65.612C185.756 65.612 185.33 65.75 184.946 66.026C184.562 66.302 184.226 66.656 183.938 67.088V71.714C184.178 72.086 184.478 72.374 184.838 72.578C185.198 72.77 185.594 72.866 186.026 72.866ZM200.134 68.978C200.134 69.254 200.122 69.536 200.098 69.824H194.05C194.122 70.868 194.386 71.636 194.842 72.128C195.298 72.62 195.886 72.866 196.606 72.866C197.062 72.866 197.482 72.8 197.866 72.668C198.25 72.536 198.652 72.326 199.072 72.038L199.792 73.028C198.784 73.82 197.68 74.216 196.48 74.216C195.16 74.216 194.128 73.784 193.384 72.92C192.652 72.056 192.286 70.868 192.286 69.356C192.286 68.372 192.442 67.502 192.754 66.746C193.078 65.978 193.534 65.378 194.122 64.946C194.722 64.514 195.424 64.298 196.228 64.298C197.488 64.298 198.454 64.712 199.126 65.54C199.798 66.368 200.134 67.514 200.134 68.978ZM198.496 68.492C198.496 67.556 198.31 66.842 197.938 66.35C197.566 65.858 197.008 65.612 196.264 65.612C194.908 65.612 194.17 66.608 194.05 68.6H198.496V68.492ZM206.9 64.298C207.236 64.298 207.548 64.334 207.836 64.406L207.53 66.026C207.242 65.954 206.966 65.918 206.702 65.918C206.114 65.918 205.64 66.134 205.28 66.566C204.92 66.998 204.638 67.67 204.434 68.582V74H202.778V64.514H204.2L204.362 66.44C204.614 65.732 204.956 65.198 205.388 64.838C205.82 64.478 206.324 64.298 206.9 64.298ZM214.575 74V61.598H221.163L220.965 62.966H216.285V67.196H220.335V68.546H216.285V74H214.575ZM229.715 74H228.293L228.167 72.524C227.807 73.112 227.393 73.544 226.925 73.82C226.457 74.084 225.887 74.216 225.215 74.216C224.387 74.216 223.739 73.964 223.271 73.46C222.803 72.956 222.569 72.242 222.569 71.318V64.514H224.225V71.138C224.225 71.786 224.339 72.248 224.567 72.524C224.795 72.788 225.167 72.92 225.683 72.92C226.607 72.92 227.399 72.374 228.059 71.282V64.514H229.715V74ZM235.026 74.216C234.414 74.216 233.928 74.036 233.568 73.676C233.22 73.304 233.046 72.788 233.046 72.128V60.698L234.702 60.5V72.092C234.702 72.356 234.744 72.548 234.828 72.668C234.924 72.788 235.08 72.848 235.296 72.848C235.524 72.848 235.728 72.812 235.908 72.74L236.34 73.892C235.944 74.108 235.506 74.216 235.026 74.216ZM240.299 74.216C239.687 74.216 239.201 74.036 238.841 73.676C238.493 73.304 238.319 72.788 238.319 72.128V60.698L239.975 60.5V72.092C239.975 72.356 240.017 72.548 240.101 72.668C240.197 72.788 240.353 72.848 240.569 72.848C240.797 72.848 241.001 72.812 241.181 72.74L241.613 73.892C241.217 74.108 240.779 74.216 240.299 74.216ZM251.596 61.382C252.424 61.382 253.132 61.502 253.72 61.742C254.308 61.97 254.878 62.33 255.43 62.822L254.494 63.866C254.026 63.494 253.564 63.224 253.108 63.056C252.664 62.876 252.184 62.786 251.668 62.786C251.02 62.786 250.486 62.936 250.066 63.236C249.646 63.536 249.436 63.974 249.436 64.55C249.436 64.91 249.508 65.216 249.652 65.468C249.796 65.708 250.06 65.93 250.444 66.134C250.84 66.338 251.41 66.554 252.154 66.782C252.934 67.022 253.582 67.28 254.098 67.556C254.614 67.832 255.028 68.216 255.34 68.708C255.664 69.188 255.826 69.8 255.826 70.544C255.826 71.264 255.646 71.9 255.286 72.452C254.938 73.004 254.428 73.436 253.756 73.748C253.096 74.06 252.31 74.216 251.398 74.216C249.682 74.216 248.278 73.682 247.186 72.614L248.122 71.57C248.626 71.978 249.136 72.29 249.652 72.506C250.168 72.71 250.744 72.812 251.38 72.812C252.148 72.812 252.784 72.626 253.288 72.254C253.792 71.87 254.044 71.318 254.044 70.598C254.044 70.19 253.966 69.854 253.81 69.59C253.654 69.314 253.384 69.068 253 68.852C252.628 68.636 252.082 68.42 251.362 68.204C250.09 67.82 249.16 67.358 248.572 66.818C247.984 66.278 247.69 65.546 247.69 64.622C247.69 63.998 247.852 63.44 248.176 62.948C248.512 62.456 248.974 62.072 249.562 61.796C250.162 61.52 250.84 61.382 251.596 61.382ZM263.043 73.568C262.419 74 261.711 74.216 260.919 74.216C260.115 74.216 259.485 73.988 259.029 73.532C258.585 73.064 258.363 72.392 258.363 71.516V65.792H256.707V64.514H258.363V62.372L260.019 62.174V64.514H262.269L262.089 65.792H260.019V71.444C260.019 71.936 260.103 72.296 260.271 72.524C260.451 72.74 260.745 72.848 261.153 72.848C261.525 72.848 261.945 72.722 262.413 72.47L263.043 73.568ZM271.026 71.786C271.026 72.17 271.092 72.458 271.224 72.65C271.356 72.83 271.554 72.968 271.818 73.064L271.44 74.216C270.948 74.156 270.552 74.018 270.252 73.802C269.952 73.586 269.73 73.25 269.586 72.794C268.95 73.742 268.008 74.216 266.76 74.216C265.824 74.216 265.086 73.952 264.546 73.424C264.006 72.896 263.736 72.206 263.736 71.354C263.736 70.346 264.096 69.572 264.816 69.032C265.548 68.492 266.58 68.222 267.912 68.222H269.37V67.52C269.37 66.848 269.208 66.368 268.884 66.08C268.56 65.792 268.062 65.648 267.39 65.648C266.694 65.648 265.842 65.816 264.834 66.152L264.42 64.946C265.596 64.514 266.688 64.298 267.696 64.298C268.812 64.298 269.646 64.574 270.198 65.126C270.75 65.666 271.026 66.44 271.026 67.448V71.786ZM267.138 72.974C268.086 72.974 268.83 72.482 269.37 71.498V69.32H268.128C266.376 69.32 265.5 69.968 265.5 71.264C265.5 71.828 265.638 72.254 265.914 72.542C266.19 72.83 266.598 72.974 267.138 72.974ZM277.883 64.298C278.447 64.298 278.963 64.382 279.431 64.55C279.899 64.706 280.349 64.964 280.781 65.324L279.989 66.368C279.653 66.128 279.323 65.954 278.999 65.846C278.687 65.726 278.339 65.666 277.955 65.666C277.187 65.666 276.587 65.972 276.155 66.584C275.735 67.196 275.525 68.102 275.525 69.302C275.525 70.502 275.735 71.39 276.155 71.966C276.575 72.53 277.175 72.812 277.955 72.812C278.327 72.812 278.669 72.758 278.981 72.65C279.293 72.53 279.641 72.344 280.025 72.092L280.781 73.172C279.917 73.868 278.951 74.216 277.883 74.216C276.599 74.216 275.585 73.784 274.841 72.92C274.109 72.056 273.743 70.862 273.743 69.338C273.743 68.33 273.911 67.448 274.247 66.692C274.583 65.936 275.057 65.348 275.669 64.928C276.293 64.508 277.031 64.298 277.883 64.298ZM284.679 60.5V74H283.023V60.698L284.679 60.5ZM290.133 64.514L286.641 68.708L290.529 74H288.549L284.787 68.816L288.279 64.514H290.133Z" fill="white"/>
</g>
<defs>
<clipPath id="clip0_84_2571">
<rect width="75" height="100" fill="white"/>
</clipPath>
<clipPath id="clip1_84_2571">
<rect width="206" height="58" fill="white" transform="translate(85 21)"/>
</clipPath>
</defs>
</svg>
