<?xml version="1.0" encoding="UTF-8"?>
<svg id="object" xmlns="http://www.w3.org/2000/svg" xmlns:xlink="http://www.w3.org/1999/xlink" viewBox="0 0 364.74 736.05">
  <defs>
    <style>
      .cls-1 {
        fill: url(#linear-gradient-2);
      }

      .cls-2 {
        fill: url(#linear-gradient-6);
      }

      .cls-3 {
        fill: url(#linear-gradient-5);
      }

      .cls-4 {
        fill: url(#linear-gradient-3);
      }

      .cls-5 {
        fill: url(#linear-gradient);
      }

      .cls-6 {
        fill: url(#linear-gradient-4);
      }
    </style>
    <linearGradient id="linear-gradient" x1="342.19" y1="368.21" x2="355.06" y2="368.21" gradientUnits="userSpaceOnUse">
      <stop offset="0" stop-color="#f1f1f1"/>
      <stop offset="0" stop-color="#f0f0f0"/>
      <stop offset=".14" stop-color="#b7b7b7"/>
      <stop offset=".27" stop-color="#888"/>
      <stop offset=".4" stop-color="#636363"/>
      <stop offset=".51" stop-color="#484848"/>
      <stop offset=".62" stop-color="#383838"/>
      <stop offset=".7" stop-color="#333"/>
    </linearGradient>
    <linearGradient id="linear-gradient-2" x1="17.06" y1="706.6" x2="347.69" y2="706.6" gradientUnits="userSpaceOnUse">
      <stop offset="0" stop-color="#1a1a1a"/>
      <stop offset=".12" stop-color="#444"/>
      <stop offset=".23" stop-color="#666"/>
      <stop offset=".34" stop-color="#7e7e7e"/>
      <stop offset=".44" stop-color="#8c8c8c"/>
      <stop offset=".52" stop-color="#929292"/>
      <stop offset=".59" stop-color="#8a8a8a"/>
      <stop offset=".7" stop-color="#757575"/>
      <stop offset=".82" stop-color="#545454"/>
      <stop offset=".97" stop-color="#252525"/>
      <stop offset="1" stop-color="#1a1a1a"/>
    </linearGradient>
    <linearGradient id="linear-gradient-3" y1="29.87" x2="355.09" y2="29.87" xlink:href="#linear-gradient-2"/>
    <linearGradient id="linear-gradient-4" x1="9.67" y1="367.99" x2="17.31" y2="367.99" gradientUnits="userSpaceOnUse">
      <stop offset="0" stop-color="#c8c8c8"/>
      <stop offset=".21" stop-color="#9f9f9f"/>
      <stop offset=".59" stop-color="#5d5d5d"/>
      <stop offset=".86" stop-color="#333"/>
      <stop offset="1" stop-color="#242424"/>
    </linearGradient>
    <linearGradient id="linear-gradient-5" x1="342.16" y1="368.25" x2="355.06" y2="368.25" gradientUnits="userSpaceOnUse">
      <stop offset="0" stop-color="#242424"/>
      <stop offset=".14" stop-color="#333"/>
      <stop offset=".41" stop-color="#5d5d5d"/>
      <stop offset=".79" stop-color="#9f9f9f"/>
      <stop offset="1" stop-color="#c8c8c8"/>
    </linearGradient>
    <linearGradient id="linear-gradient-6" x1="160.07" y1="28.11" x2="202.44" y2="28.11" gradientUnits="userSpaceOnUse">
      <stop offset="0" stop-color="#333"/>
      <stop offset=".09" stop-color="#2a2a2a"/>
      <stop offset=".29" stop-color="#1e1e1e"/>
      <stop offset=".48" stop-color="#1a1a1a"/>
      <stop offset=".79" stop-color="#1b1b1b"/>
      <stop offset=".9" stop-color="#222"/>
      <stop offset=".98" stop-color="#2e2e2e"/>
      <stop offset="1" stop-color="#333"/>
    </linearGradient>
  </defs>
  <g>
    <path d="M317.37,6.04h0c-.74-.04-1.48-.06-2.24-.06H49.63c-.76,0-1.5,.02-2.24,.06h-.03C24.34,7.23,5.99,26.32,5.99,49.62V686.43c0,22.9,17.72,41.73,40.18,43.5,.4,.03,.8,.06,1.2,.07,.75,.04,1.5,.06,2.27,.06H315.12c.76,0,1.5-.02,2.25-.06,.4-.02,.8-.05,1.2-.07,22.46-1.77,40.19-20.6,40.19-43.5V49.62c0-23.3-18.37-42.4-41.38-43.58Zm37.7,680.39c0,20.71-16.16,38.21-36.76,39.83-.37,.03-.75,.06-1.12,.06-.68,.04-1.37,.06-2.06,.06H49.63c-.7,0-1.4-.02-2.09-.06-.37,0-.75-.04-1.09-.06-20.62-1.62-36.78-19.12-36.78-39.83V49.62C9.67,28.38,26.26,10.87,47.46,9.73h.11c.67-.04,1.36-.06,2.05-.06H315.12c.69,0,1.38,.02,2.05,.05h.06c21.22,1.12,37.83,18.64,37.83,39.9V686.43Z"/>
    <path class="cls-5" d="M355.06,49.88V686.69c0,3.94-.59,7.77-1.68,11.39-.88,2.89-2.06,5.66-3.55,8.24-.3,.53-.63,1.06-.95,1.58-.5,.77-1.01,1.53-1.55,2.27-1.53,2.08-3.25,4.01-5.14,5.77,3.49-6.1,5.49-13.17,5.49-20.65v-7.34c.02-.43,.03-.88,.03-1.32V49.81c0-.45,0-.9-.03-1.34v-7.18c0-7.57-2-14.68-5.5-20.79,7.93,7.31,12.87,17.8,12.87,29.38Z"/>
    <g>
      <path d="M317.05,13.41h-.17c-.58-.04-1.17-.05-1.76-.05H49.63c-.6,0-1.21,.02-1.8,.04l-.18,.02h-.09C28.37,14.49,13.36,30.38,13.36,49.62V686.43c0,18.8,14.66,34.68,33.39,36.15,.27,.02,.58,.05,.88,.05h.11c.63,.04,1.26,.05,1.89,.05H315.12c.62,0,1.25-.02,1.86-.05h.11c.31-.01,.63-.04,.92-.06,18.71-1.47,33.36-17.35,33.36-36.15V49.62c0-19.29-15.08-35.2-34.34-36.21Zm24.67,673.02c0,13.79-10.74,25.43-24.45,26.51-.13,0-.26,.02-.39,.03h-.08s-.08,0-.08,0h-.11s-.07,0-.07,0h-.07c-.45,.03-.9,.04-1.34,.04H49.63c-.46,0-.92-.01-1.38-.04h-.05s-.05,0-.05,0h-.11s-.08,0-.08,0h-.09c-.11,0-.23-.02-.36-.03-13.73-1.08-24.48-12.72-24.48-26.51V49.62c0-14.01,10.89-25.62,24.83-26.54h.24l.36-.03c.43-.01,.81-.02,1.17-.02H315.12c.36,0,.75,0,1.2,.02h.09s.13,.01,.13,.01c14.12,.74,25.17,12.41,25.17,26.55V686.43Z"/>
      <path d="M272.63,23.03v3.47c0,11.69-9.48,21.17-21.17,21.17H113.27c-11.69,0-21.17-9.48-21.17-21.17v-3.47h180.53Z"/>
    </g>
    <path d="M272.63,23.03v3.47c0,11.69-9.48,21.17-21.17,21.17H113.27c-11.69,0-21.17-9.48-21.17-21.17v-3.47h180.53Z"/>
    <g>
      <path class="cls-1" d="M347.69,687.94v7.34c0,7.48-2,14.55-5.49,20.65-6.38,5.91-14.69,9.79-23.87,10.52-.37,.03-.75,.06-1.12,.06-.68,.04-1.37,.06-2.06,.06H49.65c-.7,0-1.4-.02-2.09-.06-.37,0-.75-.04-1.09-.06-.51-.04-1.01-.09-1.52-.16-8.58-1-16.33-4.77-22.35-10.35-3.52-6.12-5.54-13.22-5.54-20.72v-8.59c0,9.81,4.45,18.74,11.47,24.75,5.07,4.35,11.48,7.18,18.52,7.73,.23,.02,.46,.05,.69,.05h.1s.1,0,.1,0c.56,.03,1.13,.05,1.7,.05H315.14c.55,0,1.11-.02,1.67-.05h.21c.26,0,.51-.04,.76-.06,16.34-1.28,29.25-14.85,29.92-31.16Z"/>
      <path class="cls-4" d="M355.06,49.88l.03-.06c0-21.26-16.61-38.78-37.83-39.89h-.06c-.67-.04-1.36-.06-2.05-.06H49.65c-.69,0-1.38,.02-2.05,.05h-.09s-.02,0-.02,0c-.87,.05-1.71,.12-2.56,.22-8.61,1.01-16.35,4.74-22.36,10.29-3.5,6.11-5.5,13.22-5.5,20.79v8.59c0-9.89,4.42-18.8,11.44-24.8,5.21-4.45,11.85-7.29,19.19-7.73h.17l.24-.03c.56-.02,1.07-.03,1.54-.03H315.14c.42,0,.88,0,1.39,.03h0l.33,.02c16.85,.88,30.14,14.46,30.82,31.19v-7.18c0-7.57-2-14.68-5.5-20.79,7.93,7.31,12.87,17.8,12.87,29.38Z"/>
      <path class="cls-6" d="M22.58,715.75c-7.94-7.35-12.9-17.84-12.9-29.32V49.62c0-11.59,4.94-22.07,12.87-29.38-3.5,6.11-5.5,13.22-5.5,20.79V695.02c0,7.51,2.02,14.61,5.54,20.72Z"/>
      <path class="cls-3" d="M355.06,49.88V686.69c0,3.94-.59,7.77-1.68,11.39-.88,2.89-2.06,5.66-3.55,8.24-.3,.53-.63,1.06-.95,1.58-.48,.77-.99,1.53-1.55,2.27-1.53,2.11-3.27,4.07-5.19,5.84,.02-.03,.03-.05,.05-.07,3.49-6.1,5.49-13.17,5.49-20.65V41.28c0-7.57-2-14.68-5.5-20.79,7.93,7.31,12.87,17.8,12.87,29.38Z"/>
    </g>
  </g>
  <rect class="cls-2" x="160.07" y="25.89" width="42.37" height="4.45" rx="1.77" ry="1.77"/>
</svg>