<?xml version="1.0" encoding="UTF-8"?>
<svg id="shadow" xmlns="http://www.w3.org/2000/svg" viewBox="0 0 380.86 752.98">
  <defs>
    <style>
      .cls-1 {
        opacity: .26;
      }

      .cls-2 {
        opacity: .93;
      }

      .cls-3 {
        opacity: .15;
      }

      .cls-4 {
        opacity: .28;
      }

      .cls-5 {
        opacity: .59;
      }

      .cls-6 {
        opacity: .72;
      }

      .cls-7 {
        opacity: .7;
      }

      .cls-8 {
        opacity: .64;
      }

      .cls-9 {
        opacity: .75;
      }

      .cls-10 {
        opacity: .82;
      }

      .cls-11 {
        opacity: .77;
      }

      .cls-12 {
        opacity: .46;
      }

      .cls-13 {
        opacity: .49;
      }

      .cls-14 {
        opacity: .89;
      }

      .cls-15 {
        opacity: .97;
      }

      .cls-16 {
        opacity: .9;
      }

      .cls-17 {
        opacity: .11;
      }

      .cls-18 {
        opacity: .33;
      }

      .cls-19 {
        opacity: 0;
      }

      .cls-20 {
        opacity: .8;
      }

      .cls-21 {
        opacity: .3;
      }

      .cls-22 {
        opacity: .25;
      }

      .cls-23 {
        opacity: .1;
      }

      .cls-24 {
        opacity: .74;
      }

      .cls-25 {
        opacity: .66;
      }

      .cls-26 {
        opacity: .43;
      }

      .cls-27 {
        opacity: .67;
      }

      .cls-28 {
        opacity: .23;
      }

      .cls-29 {
        opacity: .48;
      }

      .cls-30 {
        opacity: .34;
      }

      .cls-31 {
        opacity: .05;
      }

      .cls-32 {
        opacity: .4;
      }

      .cls-33 {
        opacity: .85;
      }

      .cls-34 {
        opacity: .61;
      }

      .cls-35 {
        opacity: .02;
      }

      .cls-36 {
        opacity: .08;
      }

      .cls-37 {
        opacity: .36;
      }

      .cls-38 {
        opacity: .18;
      }

      .cls-39 {
        opacity: .79;
      }

      .cls-40 {
        opacity: .98;
      }

      .cls-41 {
        opacity: .56;
      }

      .cls-42 {
        opacity: .31;
      }

      .cls-43 {
        opacity: .07;
      }

      .cls-44 {
        opacity: .16;
      }

      .cls-45 {
        opacity: .95;
      }

      .cls-46 {
        opacity: .41;
      }

      .cls-47 {
        opacity: .57;
      }

      .cls-48 {
        opacity: .13;
      }

      .cls-49 {
        opacity: .21;
      }

      .cls-50 {
        opacity: .54;
      }

      .cls-51 {
        opacity: .87;
      }

      .cls-52 {
        opacity: .69;
      }

      .cls-53 {
        opacity: .51;
      }

      .cls-54 {
        opacity: .84;
      }

      .cls-55 {
        opacity: .03;
      }

      .cls-56 {
        opacity: .44;
      }

      .cls-57 {
        opacity: .62;
      }

      .cls-58 {
        opacity: .2;
      }

      .cls-59 {
        opacity: .38;
      }

      .cls-60 {
        opacity: .52;
      }

      .cls-61 {
        opacity: .39;
      }

      .cls-62 {
        opacity: .92;
      }
    </style>
  </defs>
  <g class="cls-32">
    <path class="cls-19" d="M348.86,743.28s.05-.03,.07-.04c.01,0,.03-.01,.04-.01-.04,.01-.07,.03-.11,.05ZM331.24,16.94H65.74c-27.4,0-49.62,22.21-49.62,49.61V703.37c0,27.4,22.22,49.61,49.62,49.61H331.24c27.4,0,49.62-22.21,49.62-49.61V66.55c0-27.4-22.22-49.61-49.62-49.61Z"/>
    <path class="cls-35" d="M348.6,743s.05-.03,.07-.04c.01,0,.03-.01,.04-.01-.04,.01-.07,.03-.11,.05ZM330.98,16.66H65.48c-27.4,0-49.62,22.21-49.62,49.61V703.09c0,27.4,22.22,49.61,49.62,49.61H330.98c27.4,0,49.62-22.21,49.62-49.61V66.27c0-27.4-22.22-49.61-49.62-49.61Z"/>
    <path class="cls-55" d="M348.34,742.72s.05-.03,.07-.04c.01,0,.03-.01,.04-.01-.04,.01-.07,.03-.11,.05ZM330.72,16.38H65.22c-27.4,0-49.62,22.21-49.62,49.61V702.81c0,27.4,22.22,49.61,49.62,49.61H330.72c27.4,0,49.62-22.21,49.62-49.61V65.99c0-27.4-22.22-49.61-49.62-49.61Z"/>
    <path class="cls-31" d="M348.07,742.44s.05-.03,.07-.04c.01,0,.03-.01,.04-.01-.04,.01-.07,.03-.11,.05ZM330.45,16.1H64.95c-27.4,0-49.62,22.21-49.62,49.61V702.54c0,27.4,22.22,49.61,49.62,49.61H330.45c27.4,0,49.62-22.21,49.62-49.61V65.71c0-27.4-22.22-49.61-49.62-49.61Z"/>
    <path class="cls-43" d="M347.81,742.17s.05-.03,.07-.04c.01,0,.03-.01,.04-.01-.04,.01-.07,.03-.11,.05ZM330.19,15.83H64.69c-27.4,0-49.62,22.21-49.62,49.61V702.26c0,27.4,22.22,49.61,49.62,49.61H330.19c27.4,0,49.62-22.21,49.62-49.61V65.44c0-27.4-22.22-49.61-49.62-49.61Z"/>
    <path class="cls-36" d="M347.54,741.89s.05-.03,.07-.04c.01,0,.03-.01,.04-.01-.04,.01-.07,.03-.11,.05ZM329.92,15.55H64.42c-27.4,0-49.62,22.21-49.62,49.61V701.98c0,27.4,22.22,49.61,49.62,49.61H329.92c27.4,0,49.62-22.21,49.62-49.61V65.16c0-27.4-22.22-49.61-49.62-49.61Z"/>
    <path class="cls-23" d="M347.28,741.61s.05-.03,.07-.04c.01,0,.03-.01,.04-.01-.04,.01-.07,.03-.11,.05ZM329.66,15.27H64.16c-27.4,0-49.62,22.21-49.62,49.61V701.7c0,27.4,22.22,49.61,49.62,49.61H329.66c27.4,0,49.62-22.21,49.62-49.61V64.88c0-27.4-22.22-49.61-49.62-49.61Z"/>
    <path class="cls-17" d="M347.01,741.33s.05-.03,.07-.04c.01,0,.03-.01,.04-.01-.04,.01-.07,.03-.11,.05ZM329.39,14.99H63.89c-27.4,0-49.62,22.21-49.62,49.61V701.42c0,27.4,22.22,49.61,49.62,49.61H329.39c27.4,0,49.62-22.21,49.62-49.61V64.6c0-27.4-22.22-49.61-49.62-49.61Z"/>
    <path class="cls-48" d="M346.75,741.06s.05-.03,.07-.04c.01,0,.03-.01,.04-.01-.04,.01-.07,.03-.11,.05ZM329.13,14.72H63.63c-27.4,0-49.62,22.21-49.62,49.61V701.15c0,27.4,22.22,49.61,49.62,49.61H329.13c27.4,0,49.62-22.21,49.62-49.61V64.33c0-27.4-22.22-49.61-49.62-49.61Z"/>
    <path class="cls-3" d="M346.49,740.78s.05-.03,.07-.04c.01,0,.03-.01,.04-.01-.04,.01-.07,.03-.11,.05ZM328.86,14.44H63.36c-27.4,0-49.62,22.21-49.62,49.61V700.87c0,27.4,22.22,49.61,49.62,49.61H328.86c27.4,0,49.62-22.21,49.62-49.61V64.05c0-27.4-22.22-49.61-49.62-49.61Z"/>
    <path class="cls-44" d="M346.22,740.5s.05-.03,.07-.04c.01,0,.03-.01,.04-.01-.04,.01-.07,.03-.11,.05ZM328.6,14.16H63.1c-27.4,0-49.62,22.21-49.62,49.61V700.59c0,27.4,22.22,49.61,49.62,49.61H328.6c27.4,0,49.62-22.21,49.62-49.61V63.77c0-27.4-22.22-49.61-49.62-49.61Z"/>
    <path class="cls-38" d="M345.96,740.22s.05-.03,.07-.04c.01,0,.03-.01,.04-.01-.04,.01-.07,.03-.11,.05ZM328.34,13.88H62.84c-27.4,0-49.62,22.21-49.62,49.61V700.31c0,27.4,22.22,49.61,49.62,49.61H328.34c27.4,0,49.62-22.21,49.62-49.61V63.49c0-27.4-22.22-49.61-49.62-49.61Z"/>
    <path class="cls-58" d="M345.69,739.95s.05-.03,.07-.04c.01,0,.03-.01,.04-.01-.04,.01-.07,.03-.11,.05ZM328.07,13.61H62.57c-27.4,0-49.62,22.21-49.62,49.61V700.04c0,27.4,22.22,49.61,49.62,49.61H328.07c27.4,0,49.62-22.21,49.62-49.61V63.22c0-27.4-22.22-49.61-49.62-49.61Z"/>
    <path class="cls-49" d="M345.43,739.67s.05-.03,.07-.04c.01,0,.03-.01,.04-.01-.04,.01-.07,.03-.11,.05ZM327.81,13.33H62.31c-27.4,0-49.62,22.21-49.62,49.61V699.76c0,27.4,22.22,49.61,49.62,49.61H327.81c27.4,0,49.62-22.21,49.62-49.61V62.94c0-27.4-22.22-49.61-49.62-49.61Z"/>
    <path class="cls-28" d="M345.16,739.39s.05-.03,.07-.04c.01,0,.03-.01,.04-.01-.04,.01-.07,.03-.11,.05ZM327.54,13.05H62.04c-27.4,0-49.62,22.21-49.62,49.61V699.48c0,27.4,22.22,49.61,49.62,49.61H327.54c27.4,0,49.62-22.21,49.62-49.61V62.66c0-27.4-22.22-49.61-49.62-49.61Z"/>
    <path class="cls-22" d="M344.9,739.11s.05-.03,.07-.04c.01,0,.03-.01,.04-.01-.04,.01-.07,.03-.11,.05ZM327.28,12.77H61.78c-27.4,0-49.62,22.21-49.62,49.61V699.2c0,27.4,22.22,49.61,49.62,49.61H327.28c27.4,0,49.62-22.21,49.62-49.61V62.38c0-27.4-22.22-49.61-49.62-49.61Z"/>
    <path class="cls-1" d="M344.63,738.84s.05-.03,.07-.04c.01,0,.03-.01,.04-.01-.04,.01-.07,.03-.11,.05ZM327.01,12.5H61.51c-27.4,0-49.62,22.21-49.62,49.61V698.93c0,27.4,22.22,49.61,49.62,49.61H327.01c27.4,0,49.62-22.21,49.62-49.61V62.11c0-27.4-22.22-49.61-49.62-49.61Z"/>
    <path class="cls-4" d="M344.37,738.56s.05-.03,.07-.04c0,0,.03-.01,.04-.01-.04,.01-.07,.03-.11,.05ZM326.75,12.22H61.25c-27.4,0-49.62,22.21-49.62,49.61V698.65c0,27.4,22.22,49.61,49.62,49.61H326.75c27.4,0,49.62-22.21,49.62-49.61V61.83c0-27.4-22.22-49.61-49.62-49.61Z"/>
    <path class="cls-21" d="M344.11,738.28s.05-.03,.07-.04c.01,0,.03-.01,.04-.01-.04,.01-.07,.03-.11,.05ZM326.49,11.94H60.99c-27.4,0-49.62,22.21-49.62,49.61V698.37c0,27.4,22.22,49.61,49.62,49.61H326.49c27.4,0,49.62-22.21,49.62-49.61V61.55c0-27.4-22.22-49.61-49.62-49.61Z"/>
    <path class="cls-42" d="M343.84,738s.05-.03,.07-.04c.01,0,.03-.01,.04-.01-.04,.01-.07,.03-.11,.05ZM326.22,11.66H60.72c-27.4,0-49.62,22.21-49.62,49.61V698.09c0,27.4,22.22,49.61,49.62,49.61H326.22c27.4,0,49.62-22.21,49.62-49.61V61.27c0-27.4-22.22-49.61-49.62-49.61Z"/>
    <path class="cls-18" d="M343.58,737.72s.05-.03,.07-.04c.01,0,.03-.01,.04-.01-.04,.01-.07,.03-.11,.05ZM325.96,11.38H60.46c-27.4,0-49.62,22.21-49.62,49.61V697.81c0,27.4,22.22,49.61,49.62,49.61H325.96c27.4,0,49.62-22.21,49.62-49.61V60.99c0-27.4-22.22-49.61-49.62-49.61Z"/>
    <path class="cls-30" d="M343.31,737.45s.05-.03,.07-.04c.01,0,.03-.01,.04-.01-.04,.01-.07,.03-.11,.05ZM325.69,11.11H60.19c-27.4,0-49.62,22.21-49.62,49.61V697.54c0,27.4,22.22,49.61,49.62,49.61H325.69c27.4,0,49.62-22.21,49.62-49.61V60.72c0-27.4-22.22-49.61-49.62-49.61Z"/>
    <path class="cls-37" d="M343.05,737.17s.05-.03,.07-.04c0,0,.03-.01,.04-.01-.04,.01-.07,.03-.11,.05ZM325.43,10.83H59.93c-27.4,0-49.62,22.21-49.62,49.61V697.26c0,27.4,22.22,49.61,49.62,49.61H325.43c27.4,0,49.62-22.21,49.62-49.61V60.44c0-27.4-22.22-49.61-49.62-49.61Z"/>
    <path class="cls-59" d="M342.78,736.89s.05-.03,.07-.04c.01,0,.03-.01,.04-.01-.04,.01-.07,.03-.11,.05ZM325.16,10.55H59.66c-27.4,0-49.62,22.21-49.62,49.61V696.98c0,27.4,22.22,49.61,49.62,49.61H325.16c27.4,0,49.62-22.21,49.62-49.61V60.16c0-27.4-22.22-49.61-49.62-49.61Z"/>
    <path class="cls-61" d="M342.52,736.61s.05-.03,.07-.04c.01,0,.03-.01,.04-.01-.04,.01-.07,.03-.11,.05ZM324.9,10.27H59.4c-27.4,0-49.62,22.21-49.62,49.61V696.7c0,27.4,22.22,49.61,49.62,49.61H324.9c27.4,0,49.62-22.21,49.62-49.61V59.88c0-27.4-22.22-49.61-49.62-49.61Z"/>
    <path class="cls-46" d="M342.26,736.34s.05-.03,.07-.04c.01,0,.03-.01,.04-.01-.04,.01-.07,.03-.11,.05ZM324.64,10H59.14c-27.4,0-49.62,22.21-49.62,49.61V696.43c0,27.4,22.22,49.61,49.62,49.61H324.64c27.4,0,49.62-22.21,49.62-49.61V59.61c0-27.4-22.22-49.61-49.62-49.61Z"/>
    <path class="cls-26" d="M341.99,736.06s.05-.03,.07-.04c.01,0,.03-.01,.04-.01-.04,.01-.07,.03-.11,.05ZM324.37,9.72H58.87C31.47,9.72,9.25,31.93,9.25,59.33V696.15c0,27.4,22.22,49.61,49.62,49.61H324.37c27.4,0,49.62-22.21,49.62-49.61V59.33c0-27.4-22.22-49.61-49.62-49.61Z"/>
    <path class="cls-56" d="M341.73,735.78s.05-.03,.07-.04c0,0,.03-.01,.04-.01-.04,.01-.07,.03-.11,.05ZM324.11,9.44H58.61C31.21,9.44,8.99,31.65,8.99,59.05V695.87c0,27.4,22.22,49.61,49.62,49.61H324.11c27.4,0,49.62-22.21,49.62-49.61V59.05c0-27.4-22.22-49.61-49.62-49.61Z"/>
    <path class="cls-12" d="M341.46,735.5s.05-.03,.07-.04c.01,0,.03-.01,.04-.01-.04,.01-.07,.03-.11,.05ZM323.84,9.16H58.34C30.94,9.16,8.72,31.37,8.72,58.77V695.59c0,27.4,22.22,49.61,49.62,49.61H323.84c27.4,0,49.62-22.21,49.62-49.61V58.77c0-27.4-22.22-49.61-49.62-49.61Z"/>
    <path class="cls-29" d="M341.2,735.23s.05-.03,.07-.04c.01,0,.03-.01,.04-.01-.04,.01-.07,.03-.11,.05ZM323.58,8.89H58.08C30.68,8.89,8.46,31.1,8.46,58.5V695.32c0,27.4,22.22,49.61,49.62,49.61H323.58c27.4,0,49.62-22.21,49.62-49.61V58.5c0-27.4-22.22-49.61-49.62-49.61Z"/>
    <path class="cls-13" d="M340.93,734.95s.05-.03,.07-.04c.01,0,.03-.01,.04-.01-.04,.01-.07,.03-.11,.05ZM323.31,8.61H57.81C30.41,8.61,8.19,30.82,8.19,58.22V695.04c0,27.4,22.22,49.61,49.62,49.61H323.31c27.4,0,49.62-22.21,49.62-49.61V58.22c0-27.4-22.22-49.61-49.62-49.61Z"/>
    <path class="cls-53" d="M340.67,734.67s.05-.03,.07-.04c.01,0,.03-.01,.04-.01-.04,.01-.07,.03-.11,.05ZM323.05,8.33H57.55C30.15,8.33,7.93,30.54,7.93,57.94V694.76c0,27.4,22.22,49.61,49.62,49.61H323.05c27.4,0,49.62-22.21,49.62-49.61V57.94c0-27.4-22.22-49.61-49.62-49.61Z"/>
    <path class="cls-60" d="M340.41,734.39s.05-.03,.07-.04c.01,0,.03-.01,.04-.01-.04,.01-.07,.03-.11,.05ZM322.79,8.05H57.29C29.89,8.05,7.67,30.26,7.67,57.66V694.48c0,27.4,22.22,49.61,49.62,49.61H322.79c27.4,0,49.62-22.21,49.62-49.61V57.66c0-27.4-22.22-49.61-49.62-49.61Z"/>
    <path class="cls-50" d="M340.14,734.11s.05-.03,.07-.04c.01,0,.03-.01,.04-.01-.04,.01-.07,.03-.11,.05ZM322.52,7.77H57.02C29.62,7.77,7.4,29.98,7.4,57.38V694.2c0,27.4,22.22,49.61,49.62,49.61H322.52c27.4,0,49.62-22.21,49.62-49.61V57.38c0-27.4-22.22-49.61-49.62-49.61Z"/>
    <path class="cls-41" d="M339.88,733.84s.05-.03,.07-.04c.01,0,.03-.01,.04-.01-.04,.01-.07,.03-.11,.05ZM322.26,7.5H56.76C29.36,7.5,7.14,29.71,7.14,57.11V693.93c0,27.4,22.22,49.61,49.62,49.61H322.26c27.4,0,49.62-22.21,49.62-49.61V57.11c0-27.4-22.22-49.61-49.62-49.61Z"/>
    <path class="cls-47" d="M339.61,733.56s.05-.03,.07-.04c.01,0,.03-.01,.04-.01-.04,.01-.07,.03-.11,.05ZM321.99,7.22H56.49C29.09,7.22,6.87,29.43,6.87,56.83V693.65c0,27.4,22.22,49.61,49.62,49.61H321.99c27.4,0,49.62-22.21,49.62-49.61V56.83c0-27.4-22.22-49.61-49.62-49.61Z"/>
    <path class="cls-5" d="M339.35,733.28s.05-.03,.07-.04c.01,0,.03-.01,.04-.01-.04,.01-.07,.03-.11,.05ZM321.73,6.94H56.23C28.83,6.94,6.61,29.15,6.61,56.55V693.37c0,27.4,22.22,49.61,49.62,49.61H321.73c27.4,0,49.62-22.21,49.62-49.61V56.55c0-27.4-22.22-49.61-49.62-49.61Z"/>
    <path class="cls-34" d="M339.08,733s.05-.03,.07-.04c.01,0,.03-.01,.04-.01-.04,.01-.07,.03-.11,.05ZM321.46,6.66H55.96C28.56,6.66,6.34,28.87,6.34,56.27V693.09c0,27.4,22.22,49.61,49.62,49.61H321.46c27.4,0,49.62-22.21,49.62-49.61V56.27c0-27.4-22.22-49.61-49.62-49.61Z"/>
    <path class="cls-57" d="M338.82,732.73s.05-.03,.07-.04c.01,0,.03-.01,.04-.01-.04,.01-.07,.03-.11,.05ZM321.2,6.39H55.7C28.3,6.39,6.08,28.6,6.08,56V692.82c0,27.4,22.22,49.61,49.62,49.61H321.2c27.4,0,49.62-22.21,49.62-49.61V56c0-27.4-22.22-49.61-49.62-49.61Z"/>
    <path class="cls-8" d="M338.56,732.45s.05-.03,.07-.04c.01,0,.03-.01,.04-.01-.04,.01-.07,.03-.11,.05ZM320.94,6.11H55.44C28.04,6.11,5.82,28.32,5.82,55.72V692.54c0,27.4,22.22,49.61,49.62,49.61H320.94c27.4,0,49.62-22.21,49.62-49.61V55.72c0-27.4-22.22-49.61-49.62-49.61Z"/>
    <path class="cls-25" d="M338.29,732.17s.05-.03,.07-.04c.01,0,.03-.01,.04-.01-.04,.01-.07,.03-.11,.05ZM320.67,5.83H55.17C27.77,5.83,5.55,28.04,5.55,55.44V692.26c0,27.4,22.22,49.61,49.62,49.61H320.67c27.4,0,49.62-22.21,49.62-49.61V55.44c0-27.4-22.22-49.61-49.62-49.61Z"/>
    <path class="cls-27" d="M338.03,731.89s.05-.03,.07-.04c0,0,.03-.01,.04-.01-.04,.01-.07,.03-.11,.05ZM320.41,5.55H54.91C27.51,5.55,5.29,27.76,5.29,55.16V691.98c0,27.4,22.22,49.61,49.62,49.61H320.41c27.4,0,49.62-22.21,49.62-49.61V55.16c0-27.4-22.22-49.61-49.62-49.61Z"/>
    <path class="cls-52" d="M337.76,731.62s.05-.03,.07-.04c.01,0,.03-.01,.04-.01-.04,.01-.07,.03-.11,.05ZM320.14,5.28H54.64C27.24,5.28,5.02,27.49,5.02,54.89V691.71c0,27.4,22.22,49.61,49.62,49.61H320.14c27.4,0,49.62-22.21,49.62-49.61V54.89c0-27.4-22.22-49.61-49.62-49.61Z"/>
    <path class="cls-7" d="M337.5,731.34s.05-.03,.07-.04c.01,0,.03-.01,.04-.01-.04,.01-.07,.03-.11,.05ZM319.88,5H54.38C26.98,5,4.76,27.21,4.76,54.61V691.43c0,27.4,22.22,49.61,49.62,49.61H319.88c27.4,0,49.62-22.21,49.62-49.61V54.61c0-27.4-22.22-49.61-49.62-49.61Z"/>
    <path class="cls-6" d="M337.23,731.06s.05-.03,.07-.04c.01,0,.03-.01,.04-.01-.04,.01-.07,.03-.11,.05ZM319.61,4.72H54.11C26.71,4.72,4.49,26.93,4.49,54.33V691.15c0,27.4,22.22,49.61,49.62,49.61H319.61c27.4,0,49.62-22.21,49.62-49.61V54.33c0-27.4-22.22-49.61-49.62-49.61Z"/>
    <path class="cls-24" d="M336.97,730.78s.05-.03,.07-.04c.01,0,.03-.01,.04-.01-.04,.01-.07,.03-.11,.05ZM319.35,4.44H53.85C26.45,4.44,4.23,26.65,4.23,54.05V690.87c0,27.4,22.22,49.61,49.62,49.61H319.35c27.4,0,49.62-22.21,49.62-49.61V54.05c0-27.4-22.22-49.61-49.62-49.61Z"/>
    <path class="cls-9" d="M336.71,730.51s.05-.03,.07-.04c.01,0,.03-.01,.04-.01-.04,.01-.07,.03-.11,.05ZM319.09,4.17H53.59C26.19,4.17,3.96,26.38,3.96,53.78V690.6c0,27.4,22.22,49.61,49.62,49.61H319.09c27.4,0,49.62-22.21,49.62-49.61V53.78c0-27.4-22.22-49.61-49.62-49.61Z"/>
    <path class="cls-11" d="M336.44,730.23s.05-.03,.07-.04c0,0,.03-.01,.04-.01-.04,.01-.07,.03-.11,.05ZM318.82,3.89H53.32C25.92,3.89,3.7,26.1,3.7,53.5V690.32c0,27.4,22.22,49.61,49.62,49.61H318.82c27.4,0,49.62-22.21,49.62-49.61V53.5c0-27.4-22.22-49.61-49.62-49.61Z"/>
    <path class="cls-39" d="M336.18,729.95s.05-.03,.07-.04c.01,0,.03-.01,.04-.01-.04,.01-.07,.03-.11,.05ZM318.56,3.61H53.06C25.66,3.61,3.44,25.82,3.44,53.22V690.04c0,27.4,22.22,49.61,49.62,49.61H318.56c27.4,0,49.62-22.21,49.62-49.61V53.22c0-27.4-22.22-49.61-49.62-49.61Z"/>
    <path class="cls-20" d="M335.91,729.67s.05-.03,.07-.04c.01,0,.03-.01,.04-.01-.04,.01-.07,.03-.11,.05ZM318.29,3.33H52.79C25.39,3.33,3.17,25.54,3.17,52.94V689.76c0,27.4,22.22,49.61,49.62,49.61H318.29c27.4,0,49.62-22.21,49.62-49.61V52.94c0-27.4-22.22-49.61-49.62-49.61Z"/>
    <path class="cls-10" d="M335.65,729.39s.05-.03,.07-.04c.01,0,.03-.01,.04-.01-.04,.01-.07,.03-.11,.05ZM318.03,3.05H52.53C25.13,3.05,2.91,25.26,2.91,52.66V689.48c0,27.4,22.22,49.61,49.62,49.61H318.03c27.4,0,49.62-22.21,49.62-49.61V52.66c0-27.4-22.22-49.61-49.62-49.61Z"/>
    <path class="cls-54" d="M335.38,729.12s.05-.03,.07-.04c.01,0,.03-.01,.04-.01-.04,.01-.07,.03-.11,.05ZM317.76,2.78H52.26C24.86,2.78,2.64,24.99,2.64,52.39V689.21c0,27.4,22.22,49.61,49.62,49.61H317.76c27.4,0,49.62-22.21,49.62-49.61V52.39c0-27.4-22.22-49.61-49.62-49.61Z"/>
    <path class="cls-33" d="M335.12,728.84s.05-.03,.07-.04c0,0,.03-.01,.04-.01-.04,.01-.07,.03-.11,.05ZM317.5,2.5H52C24.6,2.5,2.38,24.71,2.38,52.11V688.93c0,27.4,22.22,49.61,49.62,49.61H317.5c27.4,0,49.62-22.21,49.62-49.61V52.11c0-27.4-22.22-49.61-49.62-49.61Z"/>
    <path class="cls-51" d="M334.85,728.56s.05-.03,.07-.04c.01,0,.03-.01,.04-.01-.04,.01-.07,.03-.11,.05ZM317.23,2.22H51.73C24.33,2.22,2.11,24.43,2.11,51.83V688.65c0,27.4,22.22,49.61,49.62,49.61H317.23c27.4,0,49.62-22.21,49.62-49.61V51.83c0-27.4-22.22-49.61-49.62-49.61Z"/>
    <path class="cls-14" d="M334.59,728.28s.05-.03,.07-.04c0,0,.03-.01,.04-.01-.04,.01-.07,.03-.11,.05ZM316.97,1.94H51.47C24.07,1.94,1.85,24.15,1.85,51.55V688.37c0,27.4,22.22,49.61,49.62,49.61H316.97c27.4,0,49.62-22.21,49.62-49.61V51.55c0-27.4-22.22-49.61-49.62-49.61Z"/>
    <path class="cls-16" d="M334.33,728.01s.05-.03,.07-.04c.01,0,.03-.01,.04-.01-.04,.01-.07,.03-.11,.05ZM316.71,1.67H51.21C23.81,1.67,1.59,23.88,1.59,51.28V688.1c0,27.4,22.22,49.61,49.62,49.61H316.71c27.4,0,49.62-22.21,49.62-49.61V51.28c0-27.4-22.22-49.61-49.62-49.61Z"/>
    <path class="cls-62" d="M334.06,727.73s.05-.03,.07-.04c.01,0,.03-.01,.04-.01-.04,.01-.07,.03-.11,.05ZM316.44,1.39H50.94C23.54,1.39,1.32,23.6,1.32,51V687.82c0,27.4,22.22,49.61,49.62,49.61H316.44c27.4,0,49.62-22.21,49.62-49.61V51c0-27.4-22.22-49.61-49.62-49.61Z"/>
    <path class="cls-2" d="M333.8,727.45s.05-.03,.07-.04c.01,0,.03-.01,.04-.01-.04,.01-.07,.03-.11,.05ZM316.18,1.11H50.68C23.28,1.11,1.06,23.32,1.06,50.72V687.54c0,27.4,22.22,49.61,49.62,49.61H316.18c27.4,0,49.62-22.21,49.62-49.61V50.72c0-27.4-22.22-49.61-49.62-49.61Z"/>
    <path class="cls-45" d="M333.53,727.17s.05-.03,.07-.04c.01,0,.03-.01,.04-.01-.04,.01-.07,.03-.11,.05ZM315.91,.83H50.41C23.01,.83,.79,23.04,.79,50.44V687.26c0,27.4,22.22,49.61,49.62,49.61H315.91c27.4,0,49.62-22.21,49.62-49.61V50.44c0-27.4-22.22-49.61-49.62-49.61Z"/>
    <path class="cls-15" d="M333.27,726.9s.05-.03,.07-.04c.01,0,.03-.01,.04-.01-.04,.01-.07,.03-.11,.05ZM315.65,.56H50.15C22.75,.56,.53,22.77,.53,50.17V686.99c0,27.4,22.22,49.61,49.62,49.61H315.65c27.4,0,49.62-22.21,49.62-49.61V50.17c0-27.4-22.22-49.61-49.62-49.61Z"/>
    <path class="cls-40" d="M333,726.62s.05-.03,.07-.04c.01,0,.03-.01,.04-.01-.04,.01-.07,.03-.11,.05ZM315.38,.28H49.88C22.48,.28,.26,22.49,.26,49.89V686.71c0,27.4,22.22,49.61,49.62,49.61H315.38c27.4,0,49.62-22.21,49.62-49.61V49.89c0-27.4-22.22-49.61-49.62-49.61Z"/>
    <path d="M332.74,726.34s.05-.03,.07-.04c.01,0,.03-.01,.04-.01-.04,.01-.07,.03-.11,.05ZM315.12,0H49.62C22.22,0,0,22.21,0,49.61V686.43c0,27.4,22.22,49.61,49.62,49.61H315.12c27.4,0,49.62-22.21,49.62-49.61V49.61c0-27.4-22.22-49.61-49.62-49.61Z"/>
  </g>
</svg>