<svg width="100%" height="auto" viewBox="0 0 16 17" fill="none" xmlns="http://www.w3.org/2000/svg">
    <path
        d="M15.7066 6.5177C15.4316 5.41416 14.9102 4.58205 13.7996 4.58205H12.3675V6.27485C12.3675 7.58909 11.2532 8.69619 9.98183 8.69619H6.16767C5.12485 8.69619 4.2606 9.58902 4.2606 10.6354V14.271C4.2606 15.3067 5.16057 15.9138 6.16767 16.2102C7.37478 16.5638 8.53545 16.6281 9.98183 16.2102C10.9425 15.9317 11.8889 15.371 11.8889 14.271V12.8175H8.07832V12.3318H13.7996C14.9102 12.3318 15.3209 11.5568 15.7066 10.3961C16.1066 9.19975 16.0888 8.04979 15.7066 6.5177ZM10.2211 13.7853C10.6175 13.7853 10.9389 14.1103 10.9389 14.5103C10.9389 14.9138 10.6175 15.2388 10.2211 15.2388C9.82826 15.2388 9.50328 14.9103 9.50328 14.5103C9.50685 14.1067 9.82826 13.7853 10.2211 13.7853ZM5.99268 8.21764H9.80684C10.8675 8.21764 11.7139 7.34267 11.7139 6.27842V2.63926C11.7139 1.60358 10.8425 0.828606 9.80684 0.653612C8.52831 0.442905 7.13907 0.453619 5.99268 0.657184C4.37845 0.942888 4.0856 1.5393 4.0856 2.64283V4.09635H7.90333V4.58205H2.65351C1.54283 4.58205 0.571436 5.24988 0.267875 6.5177C-0.0821133 7.97122 -0.0963985 8.87833 0.267875 10.3961C0.539294 11.5247 1.1857 12.3318 2.29638 12.3318H3.60705V10.589C3.60705 9.32832 4.6963 8.21764 5.99268 8.21764ZM5.7534 3.12496C5.35699 3.12496 5.03557 2.79997 5.03557 2.39998C5.03914 1.99642 5.35699 1.67143 5.7534 1.67143C6.14625 1.67143 6.47123 1.99999 6.47123 2.39998C6.47123 2.79997 6.14982 3.12496 5.7534 3.12496Z"
        fill="white" />
</svg>